<?xml version="1.0" encoding="UTF-8"?>
<svg width="72px" height="72px" viewBox="0 0 72 72" version="1.1" xmlns="http://www.w3.org/2000/svg" xmlns:xlink="http://www.w3.org/1999/xlink">
    <title>Shape</title>
    <g id="Page-1" stroke="none" stroke-width="1" fill="none" fill-rule="evenodd" fill-opacity="0.2">
        <g id="Desktop-HD-Copy-3" transform="translate(-156.000000, -262.000000)" fill="#FFFFFF" fill-rule="nonzero">
            <path d="M192.0005,262 C211.882751,262 228.0005,278.117749 228.0005,298 C228.0005,317.882251 211.882751,334 192.0005,334 C172.118249,334 156.0005,317.882251 156.0005,298 C156.0005,278.117749 172.118249,262 192.0005,262 Z M192.933705,276.611819 L191.876208,276.611819 C190.982626,276.611819 190.258235,277.336211 190.258235,278.229793 L190.258235,281.257886 C187.629617,281.614772 185.489278,282.584553 183.848855,284.168893 C182.129406,285.829558 181.26485,287.861632 181.26485,290.243051 C181.26485,292.183637 181.763186,293.760462 182.766432,294.958366 C183.748421,296.130891 184.931483,296.99798 186.311651,297.55592 C187.652258,298.097868 189.384747,298.637496 191.511037,299.176156 C193.104046,299.595385 194.348512,299.958937 195.239152,300.265094 C196.090629,300.557789 196.796898,300.97363 197.361772,301.512231 C197.890756,302.016611 198.153836,302.67125 198.153836,303.500904 C198.153836,304.962377 197.636806,306.060267 196.594959,306.832005 C195.52689,307.623168 193.991965,308.025332 191.982732,308.025332 C190.251168,308.025332 188.661145,307.764897 187.210927,307.245007 C186.751493,307.080304 185.811636,306.56181 184.418602,305.699649 C184.291039,305.619624 184.291039,305.619624 184.079383,305.483101 C183.99216,305.429199 183.99216,305.429199 183.900701,305.382848 C183.095343,304.995857 182.128743,305.33499 181.741649,306.140313 L181.225742,307.213957 C180.895142,307.901962 181.090424,308.727472 181.694178,309.194587 C181.94137,309.385694 182.129826,309.524733 182.262536,309.613543 C183.172669,310.22261 184.174106,310.729532 185.26625,311.134378 C186.832006,311.714787 188.510326,312.085558 190.300457,312.247045 L190.300457,315.218606 C190.300457,316.112188 191.024849,316.836579 191.918431,316.836579 L192.975928,316.836579 C193.86951,316.836579 194.593901,316.112188 194.593901,315.218606 L194.593901,312.144154 C197.164801,311.763194 199.241467,310.816293 200.813068,309.300821 C202.462943,307.70987 203.291729,305.726704 203.291729,303.374237 C203.291729,301.517815 202.814337,300.011049 201.852833,298.869262 C200.912822,297.752999 199.778779,296.92824 198.454771,296.398637 C197.170002,295.88473 195.493533,295.373264 193.42324,294.862781 C191.772541,294.471075 190.476989,294.101913 189.536002,293.755961 C188.629776,293.42279 187.874921,292.94604 187.267324,292.325233 C186.690581,291.735953 186.402744,290.978815 186.402744,290.031939 C186.402744,288.597741 186.92758,287.490464 187.987964,286.675779 C189.071107,285.843608 190.539665,285.423067 192.404957,285.423067 C194.99755,285.423067 197.370405,286.186414 199.533698,287.717176 C199.62385,287.78138 199.701049,287.827248 199.781647,287.866487 C200.585242,288.257711 201.553805,287.923362 201.944757,287.119673 L202.404799,286.174722 C202.736097,285.494218 202.551396,284.674986 201.960113,284.202545 C201.612433,283.924654 201.315849,283.706078 201.068758,283.546138 C200.420223,283.126346 199.713345,282.753113 198.948339,282.426314 C197.563504,281.834734 196.09762,281.443956 194.551679,281.253948 L194.551679,278.229793 C194.551679,277.336211 193.827287,276.611819 192.933705,276.611819 Z" id="Shape"></path>
        </g>
    </g>
</svg>