<?xml version="1.0" encoding="UTF-8"?>
<svg width="72px" height="72px" viewBox="0 0 72 72" version="1.1" xmlns="http://www.w3.org/2000/svg" xmlns:xlink="http://www.w3.org/1999/xlink">
    <title>dollar</title>
    <g id="Page-1" stroke="none" stroke-width="1" fill="none" fill-rule="evenodd">
        <g id="Desktop-HD-Copy-3" transform="translate(-121.000000, -340.000000)" fill-rule="nonzero">
            <g id="dollar" transform="translate(121.000500, 340.000000)">
                <path d="M36,0 C55.882251,0 72,16.117749 72,36 C72,55.882251 55.882251,72 36,72 C16.117749,72 0,55.882251 0,36 C0,16.117749 16.117749,0 36,0 Z" id="Path" fill="#4F4B7D"></path>
                <path d="M36.9332054,14.6118193 L35.8757085,14.6118193 C34.9821264,14.6118193 34.257735,15.3362107 34.257735,16.2297927 L34.257735,19.2578856 C31.6291175,19.614772 29.4887779,20.5845533 27.8483554,22.168893 C26.1289056,23.8295581 25.2643504,25.8616323 25.2643504,28.2430511 C25.2643504,30.1836373 25.7626865,31.7604619 26.7659316,32.9583664 C27.7479209,34.1308911 28.9309829,34.99798 30.3111515,35.5559204 C31.651758,36.0978678 33.3842472,36.6374956 35.5105375,37.1761558 C37.1035456,37.5953848 38.3480116,37.9589366 39.2386516,38.2650941 C40.0901289,38.5577895 40.7963982,38.9736303 41.3612718,39.5122307 C41.8902564,40.0166113 42.1533356,40.6712503 42.1533356,41.5009045 C42.1533356,42.962377 41.6363061,44.0602669 40.5944592,44.8320053 C39.5263896,45.623168 37.9914648,46.0253317 35.9822323,46.0253317 C34.2506681,46.0253317 32.6606452,45.7648969 31.2104274,45.2450075 C30.7509927,45.0803044 29.8111356,44.56181 28.4181021,43.6996492 C28.2905388,43.6196245 28.2905388,43.6196245 28.0788829,43.4831008 C27.99166,43.4291991 27.99166,43.4291991 27.9002009,43.3828475 C27.0948429,42.9958573 26.1282428,43.3349901 25.741149,44.140313 L25.2252423,45.2139565 C24.8946421,45.9019624 25.0899239,46.7274717 25.6936779,47.1945869 C25.9408699,47.3856936 26.1293264,47.524733 26.2620357,47.6135429 C27.1721694,48.2226096 28.1736063,48.7295317 29.2657501,49.1343781 C30.8315056,49.7147875 32.5098261,50.0855577 34.2999575,50.2470453 L34.2999575,53.2186056 C34.2999575,54.1121877 35.0243489,54.836579 35.9179309,54.836579 L36.9754279,54.836579 C37.86901,54.836579 38.5934013,54.1121877 38.5934013,53.2186056 L38.5934013,50.1441538 C41.1643014,49.7631943 43.240967,48.8162934 44.8125676,47.3008215 C46.462443,45.7098701 47.2912287,43.7267045 47.2912287,41.3742371 C47.2912287,39.517815 46.8138373,38.0110486 45.8523328,36.8692619 C44.9123218,35.7529989 43.7782787,34.9282402 42.454271,34.3986372 C41.169502,33.8847295 39.4930328,33.3732644 37.4227398,32.8627812 C35.7720409,32.4710751 34.4764893,32.1019126 33.5355022,31.7559614 C32.629276,31.42279 31.8744214,30.9460398 31.2668236,30.3252334 C30.6900814,29.7359532 30.4022435,28.9788146 30.4022435,28.0319388 C30.4022435,26.5977411 30.92708,25.4904643 31.9874644,24.6757787 C33.0706069,23.8436082 34.5391647,23.4230667 36.4044569,23.4230667 C38.9970495,23.4230667 41.3699048,24.186414 43.5331978,25.7171763 C43.6233501,25.78138 43.7005488,25.8272482 43.7811474,25.866487 C44.584742,26.2577107 45.5533053,25.9233617 45.9442569,25.1196734 L46.404299,24.1747222 C46.7355972,23.4942177 46.5508957,22.674986 45.9596135,22.2025451 C45.6119334,21.9246535 45.3153488,21.7060782 45.0682578,21.5461379 C44.4197235,21.1263463 43.7128455,20.7531131 42.9478386,20.426314 C41.5630044,19.8347344 40.0971201,19.4439564 38.5511789,19.2539476 L38.5511789,16.2297927 C38.5511789,15.3362107 37.8267875,14.6118193 36.9332054,14.6118193 Z" id="Path" fill="#241F5D"></path>
            </g>
        </g>
    </g>
</svg>