<?xml version="1.0" encoding="UTF-8"?>
<svg width="72px" height="72px" viewBox="0 0 72 72" version="1.1" xmlns="http://www.w3.org/2000/svg" xmlns:xlink="http://www.w3.org/1999/xlink">
    <title>euro</title>
    <g id="Page-1" stroke="none" stroke-width="1" fill="none" fill-rule="evenodd">
        <g id="Desktop-HD-Copy-3" transform="translate(-1241.000000, -208.000000)" fill-rule="nonzero">
            <g id="euro" transform="translate(1241.000000, 208.000000)">
                <path d="M36,0 C55.882251,0 72,16.117749 72,36 C72,55.882251 55.882251,72 36,72 C16.117749,72 0,55.882251 0,36 C0,16.117749 16.117749,0 36,0 Z" id="Path" fill="#4F4B7D"></path>
                <path d="M37.4701353,17.3584565 C34.2049321,17.3584565 31.4923769,18.4048428 29.3539806,20.4950046 C27.2845335,22.5177724 25.9244213,25.3605524 25.2682128,29.0130036 L22.1652733,29.0130036 C21.2716913,29.0130036 20.5472999,29.737395 20.5472999,30.6309771 L20.5472999,31.311824 C20.5472999,32.205406 21.2716913,32.9297974 22.1652733,32.9297974 L24.8151833,32.9297974 C24.7980457,33.3411938 24.789555,33.8689532 24.789555,34.5143828 C24.789555,35.1598125 24.7980457,35.6875719 24.8151833,36.0989683 L22.1652733,36.0989683 C21.2716913,36.0989683 20.5472999,36.8233597 20.5472999,37.7169417 L20.5472999,38.3977886 C20.5472999,39.2913707 21.2716913,40.0157621 22.1652733,40.0157621 L25.2682096,40.0157621 C25.9243434,43.6682362 27.2841751,46.5183934 29.3529597,48.5560685 C31.4913719,50.6623241 34.2043588,51.7169273 37.4701353,51.7169273 C39.2908997,51.7169273 41.1253324,51.342065 42.9714379,50.594074 C43.6759143,50.3086396 44.3349096,49.9845687 44.9482819,49.6217758 C45.4630617,49.3172976 46.0912766,48.8448781 46.8372397,48.2031244 C47.3895986,47.7279287 47.5562056,46.9421799 47.2441493,46.2837794 L46.6530358,45.035873 C46.5997357,44.9233507 46.5336259,44.8173565 46.4560188,44.7199947 C45.8990141,44.0212062 44.8809929,43.9062811 44.1822481,44.4633288 C43.8767914,44.7068084 43.6218222,44.8984405 43.4185495,45.0375836 C41.4956824,46.3538137 39.5770015,47.0076244 37.656608,47.0076244 C33.9618703,47.0076244 31.6852475,44.7157895 30.7841267,40.0157621 L36.8315768,40.0157621 C37.7251588,40.0157621 38.4495502,39.2913707 38.4495502,38.3977886 L38.4495502,37.7169417 C38.4495502,36.8233597 37.7251588,36.0989683 36.8315768,36.0989683 L30.3635186,36.0989683 C30.3465706,35.7106629 30.3379854,35.1818023 30.3379854,34.5143828 C30.3379854,33.8469634 30.3465706,33.3181028 30.3635186,32.9297974 L36.8315768,32.9297974 C37.7251588,32.9297974 38.4495502,32.205406 38.4495502,31.311824 L38.4495502,30.6309771 C38.4495502,29.737395 37.7251588,29.0130036 36.8315768,29.0130036 L30.784643,29.0130036 C31.6859795,24.3443974 33.9620628,22.0677595 37.656608,22.0677595 C39.7748328,22.0677595 41.8917341,22.8634176 44.0137215,24.4662861 C44.0967617,24.5296038 44.0967617,24.5296038 44.1909005,24.6037234 C44.2873392,24.6801787 44.3921865,24.7453808 44.503408,24.7980646 C45.3109198,25.1805702 46.2756285,24.836052 46.658219,24.0285684 L47.2580926,22.7621686 C47.5615693,22.1214955 47.4126263,21.3578697 46.8906441,20.878174 C46.5898955,20.6018307 46.3368226,20.384183 46.1298716,20.2243067 C45.1879459,19.4966386 44.1426227,18.9000467 42.9948162,18.4347198 C41.2253506,17.7173688 39.3829341,17.3584565 37.4701353,17.3584565 Z" id="Path" fill="#241F5D"></path>
            </g>
        </g>
    </g>
</svg>