<?xml version="1.0" encoding="UTF-8"?>
<svg width="72px" height="72px" viewBox="0 0 72 72" version="1.1" xmlns="http://www.w3.org/2000/svg" xmlns:xlink="http://www.w3.org/1999/xlink">
    <title>euro</title>
    <g id="Page-1" stroke="none" stroke-width="1" fill="none" fill-rule="evenodd" fill-opacity="0.2">
        <g id="Desktop-HD-Copy-3" transform="translate(-1241.000000, -208.000000)" fill="#FFFFFF" fill-rule="nonzero">
            <path d="M1277,208 C1296.88225,208 1313,224.117749 1313,244 C1313,263.882251 1296.88225,280 1277,280 C1257.11775,280 1241,263.882251 1241,244 C1241,224.117749 1257.11775,208 1277,208 Z M1278.47014,225.358457 C1275.20493,225.358457 1272.49238,226.404843 1270.35398,228.495005 C1268.28453,230.517772 1266.92442,233.360552 1266.26821,237.013004 L1263.16527,237.013004 C1262.27169,237.013004 1261.5473,237.737395 1261.5473,238.630977 L1261.5473,239.311824 C1261.5473,240.205406 1262.27169,240.929797 1263.16527,240.929797 L1265.81518,240.929797 C1265.79805,241.341194 1265.78956,241.868953 1265.78956,242.514383 C1265.78956,243.159813 1265.79805,243.687572 1265.81518,244.098968 L1263.16527,244.098968 C1262.27169,244.098968 1261.5473,244.82336 1261.5473,245.716942 L1261.5473,246.397789 C1261.5473,247.291371 1262.27169,248.015762 1263.16527,248.015762 L1266.26821,248.015762 C1266.92434,251.668236 1268.28418,254.518393 1270.35296,256.556068 C1272.49137,258.662324 1275.20436,259.716927 1278.47014,259.716927 C1280.2909,259.716927 1282.12533,259.342065 1283.97144,258.594074 C1284.67591,258.30864 1285.33491,257.984569 1285.94828,257.621776 C1286.46306,257.317298 1287.09128,256.844878 1287.83724,256.203124 C1288.3896,255.727929 1288.55621,254.94218 1288.24415,254.283779 L1287.65304,253.035873 C1287.59974,252.923351 1287.53363,252.817356 1287.45602,252.719995 C1286.89901,252.021206 1285.88099,251.906281 1285.18225,252.463329 C1284.87679,252.706808 1284.62182,252.89844 1284.41855,253.037584 C1282.49568,254.353814 1280.577,255.007624 1278.65661,255.007624 C1274.96187,255.007624 1272.68525,252.71579 1271.78413,248.015762 L1277.83158,248.015762 C1278.72516,248.015762 1279.44955,247.291371 1279.44955,246.397789 L1279.44955,245.716942 C1279.44955,244.82336 1278.72516,244.098968 1277.83158,244.098968 L1271.36352,244.098968 C1271.34657,243.710663 1271.33799,243.181802 1271.33799,242.514383 C1271.33799,241.846963 1271.34657,241.318103 1271.36352,240.929797 L1277.83158,240.929797 C1278.72516,240.929797 1279.44955,240.205406 1279.44955,239.311824 L1279.44955,238.630977 C1279.44955,237.737395 1278.72516,237.013004 1277.83158,237.013004 L1271.78464,237.013004 C1272.68598,232.344397 1274.96206,230.06776 1278.65661,230.06776 C1280.77483,230.06776 1282.89173,230.863418 1285.01372,232.466286 C1285.09676,232.529604 1285.09676,232.529604 1285.1909,232.603723 C1285.28734,232.680179 1285.39219,232.745381 1285.50341,232.798065 C1286.31092,233.18057 1287.27563,232.836052 1287.65822,232.028568 L1288.25809,230.762169 C1288.56157,230.121496 1288.41263,229.35787 1287.89064,228.878174 C1287.5899,228.601831 1287.33682,228.384183 1287.12987,228.224307 C1286.18795,227.496639 1285.14262,226.900047 1283.99482,226.43472 C1282.22535,225.717369 1280.38293,225.358457 1278.47014,225.358457 Z" id="euro"></path>
        </g>
    </g>
</svg>