<?xml version="1.0" encoding="UTF-8"?>
<svg width="40px" height="40px" viewBox="0 0 40 40" version="1.1" xmlns="http://www.w3.org/2000/svg" xmlns:xlink="http://www.w3.org/1999/xlink">
    <title>krona</title>
    <g id="Page-1" stroke="none" stroke-width="1" fill="none" fill-rule="evenodd">
        <g id="Desktop-HD-Copy-3" transform="translate(-974.000000, -339.000000)" fill-rule="nonzero">
            <g id="krona" transform="translate(974.000500, 339.000000)">
                <path d="M20,0 C31.0448254,0 40,8.95473275 40,20 C40,31.0452673 31.0448254,40 20,40 C8.954287,40 0,31.045713 0,20 C0,8.954287 8.954287,0 20,0 Z" id="Path" fill="#4F4B7D"></path>
                <path d="M23.2525333,15.6901333 C23.8700792,15.6901333 24.3895681,16.1099653 24.5411517,16.679781 C25.0069558,16.4960593 25.5153085,16.3954667 26.0472,16.3954667 C26.9466633,16.3954667 27.8069389,16.6866447 28.5149319,17.2146052 C29.1052478,17.6548122 29.2269351,18.490216 28.7867281,19.0805319 C28.3465211,19.6708478 27.5111173,19.7925351 26.9208014,19.3523281 C26.6689291,19.1645033 26.3664804,19.0621333 26.0472,19.0621333 C25.293842,19.0621333 24.6737686,19.6323585 24.5944404,20.3653805 L24.5944404,20.3653805 L24.5858667,20.5248 L24.5858667,25.0261333 C24.5858667,25.762513 23.988913,26.3594667 23.2525333,26.3594667 C22.5687522,26.3594667 22.0051905,25.8447464 21.9281703,25.1816282 L21.9281703,25.1816282 L21.9192,25.0261333 L21.9192,17.0234667 C21.9192,16.287087 22.5161537,15.6901333 23.2525333,15.6901333 Z M18.3043096,13.712603 C18.8050829,13.1727131 19.6487071,13.1410029 20.188597,13.6417762 C20.6869569,14.1040285 20.7523116,14.8584141 20.3655455,15.3963763 L20.3655455,15.3963763 L20.2594238,15.5260637 L16.2732,19.8219941 L20.2587786,24.1194261 C20.7210191,24.617797 20.7295397,25.3749603 20.303468,25.8823597 L20.303468,25.8823597 L20.1879072,26.0037119 C19.6480055,26.5044724 18.804382,26.4727423 18.3036214,25.9328405 L18.3036214,25.9328405 L13.8731527,21.1586748 C13.7834925,21.1230535 13.6968149,21.0772698 13.614852,21.0212585 L13.614852,21.0212585 L13.6145333,25.0265333 C13.6145333,25.762913 13.0175797,26.3598667 12.2812,26.3598667 C11.5974189,26.3598667 11.0338571,25.8451464 10.956837,25.1820282 L10.956837,25.1820282 L10.9478667,25.0265333 L10.9478667,14.6198667 C10.9478667,13.883487 11.5448203,13.2865333 12.2812,13.2865333 C12.9649811,13.2865333 13.5285429,13.8012536 13.605563,14.4643718 L13.605563,14.4643718 L13.6145333,14.6198667 L13.6145672,18.6903918 C13.6689257,18.650471 13.725554,18.6152191 13.7839186,18.5846158 L13.7839186,18.5846158 Z" id="Combined-Shape" fill="#241F5D"></path>
            </g>
        </g>
    </g>
</svg>