<?xml version="1.0" encoding="UTF-8"?>
<svg width="40px" height="40px" viewBox="0 0 40 40" version="1.1" xmlns="http://www.w3.org/2000/svg" xmlns:xlink="http://www.w3.org/1999/xlink">
    <title>krw</title>
    <g id="Page-1" stroke="none" stroke-width="1" fill="none" fill-rule="evenodd">
        <g id="Desktop-HD-Copy-3" transform="translate(-840.000000, -694.000000)" fill-rule="nonzero">
            <g id="krw" transform="translate(840.000500, 694.000000)">
                <path d="M20,0 C31.045713,0 40,8.954287 40,20 C40,31.045713 31.045713,40 20,40 C8.95517456,40 0,31.0452673 0,20 C0,8.95473275 8.95517456,0 20,0 Z" id="Path" fill="#4F4B7D"></path>
                <path d="M20.0400494,12.9598218 L20.0788661,12.9615443 C20.1000772,12.9628721 20.1219617,12.9647171 20.1438674,12.967117 C20.1728624,12.9701516 20.2013603,12.9742022 20.229641,12.9791589 L20.229641,12.9791589 L20.2938313,12.9920447 C20.320316,12.9980422 20.3465768,13.0048401 20.372578,13.0124202 L20.372578,13.0124202 L20.4410493,13.0346508 C20.4651575,13.0428398 20.4896604,13.0522406 20.5138566,13.0623469 L20.5138566,13.0623469 L20.5888438,13.0964781 C20.6060474,13.104862 20.623472,13.1139041 20.6406918,13.1233251 C20.6663738,13.1373738 20.6914616,13.1521834 20.715934,13.1677308 L20.715934,13.1677308 L20.7646801,13.200206 L20.8021348,13.2274106 L20.8387071,13.2559637 C20.854415,13.2684824 20.869301,13.2810501 20.8839199,13.2939529 C20.9037491,13.3117985 20.9236238,13.3305151 20.9428679,13.3497848 C20.9628724,13.369227 20.9815906,13.3891001 20.9997202,13.4095857 L20.9997202,13.4095857 L21.0366049,13.4541028 C21.0595633,13.4814843 21.0806879,13.5098154 21.1007301,13.5390922 L21.1007301,13.5390922 L21.1182684,13.5667333 C21.1397371,13.5984457 21.1594989,13.6319991 21.1778585,13.6666076 C21.183231,13.6782087 21.1887305,13.6889123 21.1940852,13.6996882 L21.1940852,13.6996882 L21.234946,13.7889775 L21.2442667,13.8152405 L21.2379333,13.8012405 L21.2576,13.8525739 L21.2693649,13.8832453 L21.9882667,16.1099072 L27.1056,16.1099072 L27.8250351,13.8832453 C28.0512996,13.182489 28.8027984,12.7978373 29.5035547,13.0241018 C30.154257,13.2342045 30.5323997,13.8971879 30.4019401,14.5518926 L30.4019401,14.5518926 L30.3626982,14.7026214 L29.9083395,16.1106833 C30.6416185,16.1143124 31.2349333,16.7098681 31.2349333,17.444 C31.2349333,18.1803797 30.6379797,18.7773333 29.9016,18.7773333 L29.9016,18.7773333 L29.0456,18.7765739 L28.6509333,19.9992405 L29.9016,20 C30.5853811,20 31.1489429,20.5147203 31.225963,21.1778385 L31.225963,21.1778385 L31.2349333,21.3333333 C31.2349333,22.0171145 30.7202131,22.5806762 30.0570948,22.6576964 L30.0570948,22.6576964 L29.9016,22.6666667 L27.7896,22.6659072 L25.8160315,28.7839547 C25.4356774,29.9619371 23.8249804,30.0131537 23.33764,28.9376046 L23.33764,28.9376046 L23.2783685,28.7839547 L21.3029333,22.6659072 L18.6976,22.6659072 L16.7235333,28.7838459 C16.3432631,29.961914 14.7324738,30.0132027 14.2451095,28.9376111 L14.2451095,28.9376111 L14.1858351,28.7839547 L12.2109333,22.6659072 L10.1002667,22.6666667 C9.41648555,22.6666667 8.85292379,22.1519464 8.77590364,21.4888282 L8.77590364,21.4888282 L8.76693333,21.3333333 C8.76693333,20.6495522 9.28165359,20.0859905 9.94477183,20.0089703 L9.94477183,20.0089703 L10.1002667,20 L11.3496,19.9992405 L10.9549333,18.7765739 L10.1002667,18.7773333 C9.41648555,18.7773333 8.85292379,18.2626131 8.77590364,17.5994948 L8.77590364,17.5994948 L8.76693333,17.444 C8.76693333,16.7076203 9.363887,16.1106667 10.0936,16.1099072 L10.0936,16.1099072 L9.63916846,14.7026214 C9.412904,14.0018651 9.79755564,13.2503663 10.4983119,13.0241018 C11.1490142,12.8139991 11.843469,13.1306557 12.1205169,13.738029 L12.1205169,13.738029 L12.1768315,13.8832453 L12.8949333,16.1099072 L18.0122667,16.1099072 L18.7311333,13.8833541 L18.7417174,13.851884 C18.7504398,13.8283092 18.7598406,13.8038062 18.7699469,13.7796101 C18.7811692,13.7512888 18.7932966,13.7247116 18.8062036,13.6987007 C18.811751,13.6890142 18.8172496,13.6783102 18.8228914,13.6676816 C18.8405351,13.632933 18.8597846,13.6001621 18.8802805,13.5684415 L18.8802805,13.5684415 L18.907806,13.5287866 C18.9242206,13.5040835 18.9415221,13.4810202 18.9594976,13.4586112 C18.9720816,13.4438747 18.9848436,13.4286183 18.9979557,13.4136392 C19.0196129,13.3881793 19.0423646,13.3641723 19.0659202,13.3410953 L19.0659202,13.3410953 L19.0949553,13.3138729 C19.1188048,13.2914964 19.143427,13.2704014 19.1687456,13.2502549 C19.188841,13.2343611 19.2095638,13.2187864 19.2307999,13.2037877 L19.2307999,13.2037877 L19.2841722,13.1680056 C19.3089739,13.1522427 19.3340604,13.1374309 19.3597418,13.1233972 C19.3769602,13.1139575 19.3943841,13.104914 19.4119991,13.0962564 L19.4119991,13.0962564 L19.4993147,13.0573173 C19.5113977,13.0520789 19.5337778,13.0434815 19.5602667,13.0339072 L19.5602667,13.0339072 L19.5908453,13.0241018 C19.603691,13.0199541 19.6165538,13.0160117 19.6294301,13.0122727 C19.6539604,13.004858 19.6793236,12.9982832 19.7048965,12.9924548 C19.7281052,12.9874106 19.7507452,12.982864 19.7733862,12.9789209 C19.7997596,12.9741342 19.8272495,12.9702288 19.8549033,12.9671862 C19.8777865,12.9647843 19.9000071,12.9629006 19.9221882,12.9615798 L19.9221882,12.9615798 L19.9610122,12.9598126 L20.0400494,12.9598218 Z M24.9882667,22.6659072 L24.1056,22.6659072 L24.5466667,24.0333333 L24.9882667,22.6659072 Z M15.8949333,22.6659072 L15.0122667,22.6659072 L15.4539333,24.0332405 L15.8949333,22.6659072 Z M26.2442667,18.7765739 L22.8496,18.7765739 L23.2442667,19.9992405 L25.8496,19.9992405 L26.2442667,18.7765739 Z M17.1509333,18.7765739 L13.7562667,18.7765739 L14.1509333,19.9992405 L16.7562667,19.9992405 L17.1509333,18.7765739 Z M20.0469333,18.7765739 L19.9536,18.7765739 L19.5589333,19.9992405 L20.4416,19.9992405 L20.0469333,18.7765739 Z" id="Combined-Shape" fill="#241F5D"></path>
            </g>
        </g>
    </g>
</svg>