<?xml version="1.0" encoding="UTF-8"?>
<svg width="60px" height="60px" viewBox="0 0 60 60" version="1.1" xmlns="http://www.w3.org/2000/svg" xmlns:xlink="http://www.w3.org/1999/xlink">
    <title>lira</title>
    <g id="Page-1" stroke="none" stroke-width="1" fill="none" fill-rule="evenodd">
        <g id="Desktop-HD-Copy-3" transform="translate(-469.000000, -557.000000)" fill-rule="nonzero">
            <g id="lira" transform="translate(469.000500, 557.000000)">
                <path d="M30,0 C46.5672382,0 60,13.4320991 60,30 C60,46.5679009 46.5672382,60 30,60 C13.4314305,60 0,46.5685695 0,30 C0,13.4314305 13.4314305,0 30,0 Z" id="Path" fill="#4F4B7D"></path>
                <path d="M27.3848,16.9628 L27.1515577,16.9762555 L26.9262183,17.0156214 C26.0426673,17.2229054 25.3848,18.0160261 25.3848,18.9628 L25.383862,22.2448 L19.3748485,24.1693517 L19.1568039,24.2532536 C18.24466,24.6664409 17.7669519,25.706877 18.0795517,26.6837515 L18.1634536,26.9017961 C18.5766409,27.81394 19.617077,28.2916481 20.5939515,27.9790483 L25.383862,26.4468 L25.383862,29.0768 L19.3748485,31.0013517 C18.3228299,31.3379977 17.7429057,32.4637328 18.0795517,33.5157515 L18.1634536,33.7337961 C18.5766409,34.64594 19.617077,35.1236481 20.5939515,34.8110483 L25.383862,33.2788 L25.3848,40.8848 L25.3976238,41.1119943 C25.4993367,42.0079315 26.1955363,42.7376821 27.1072361,42.8654459 C27.278307,42.8894195 27.5656245,42.9219956 27.9502892,42.9535565 C29.9108841,43.1144193 32.040572,43.0676152 34.0913205,42.6581796 C37.4231987,41.9929641 39.9808095,40.4610579 41.2421358,37.7667755 C41.7104598,36.7664024 41.2791487,35.5757881 40.2787755,35.1074642 C39.2784024,34.6391402 38.0877881,35.0704513 37.6194642,36.0708245 C36.9923162,37.4104569 35.5157846,38.2948401 33.3081694,38.7355944 L32.5394572,38.8668346 C31.5029497,39.0153634 30.4264483,39.060335 29.3848,39.029059 L29.383862,31.9988 L35.3939515,30.0750483 C36.4459701,29.7384023 37.0258943,28.6126672 36.6892483,27.5606485 L36.6053464,27.3426039 C36.1921591,26.43046 35.151723,25.9527519 34.1748485,26.2653517 L29.383862,27.7968 L29.383862,25.1668 L35.3939515,23.2430483 L35.6119961,23.1591464 C36.52414,22.7459591 37.0018481,21.705523 36.6892483,20.7286485 L36.6053464,20.5106039 C36.1921591,19.59846 35.151723,19.1207519 34.1748485,19.4333517 L29.383862,20.9648 L29.3848,18.9628 L29.3713445,18.7295577 C29.2558143,17.7348804 28.4104717,16.9628 27.3848,16.9628 Z" id="Path" fill="#241F5D"></path>
            </g>
        </g>
    </g>
</svg>