<?xml version="1.0" encoding="UTF-8"?>
<svg width="55px" height="44px" viewBox="0 0 55 44" version="1.1" xmlns="http://www.w3.org/2000/svg" xmlns:xlink="http://www.w3.org/1999/xlink">
    <title>payWaveIcon 2</title>
    <g id="Page-1" stroke="none" stroke-width="1" fill="none" fill-rule="evenodd">
        <g id="Desktop-HD-Copy-9" transform="translate(-692.000000, -564.000000)" fill="#D5D5D5">
            <g id="visa" transform="translate(560.000000, 132.000000)">
                <g id="payWaveIcon-2" transform="translate(132.666667, 432.272727)">
                    <path d="M40.8596189,-4.39167416 C41.1505448,-4.11984275 41.906952,-2.88532825 42.5401436,-1.64911216 C45.0480956,3.24768188 46.7666973,8.62007455 47.6150884,14.2119743 C48.1400384,17.6726136 48.2444295,24.2314504 47.825154,27.3994137 C47.0512056,33.2435764 45.4998863,38.4581452 43.0158929,43.566789 C41.5146299,46.6547769 40.5721158,47.9250251 39.7831933,47.9250251 C39.6253232,47.9250251 39.3677683,47.964162 39.2111817,48.0122323 C39.0537395,48.0594519 38.6207734,48.0109561 38.2481316,47.903755 C37.3920395,47.6574477 36.5243959,46.6445673 36.3421394,45.6776302 C36.2232021,45.0480363 36.3682372,44.6111492 37.2756691,42.8657278 C40.9426184,35.8125747 42.5362931,29.3218021 42.5362931,21.4433705 C42.5362931,13.8295385 41.1253027,7.90540041 37.620074,0.80502778 C36.8675173,-0.719184977 36.2518668,-2.13449501 36.2518668,-2.33911302 C36.2518668,-3.09462568 36.8876254,-4.19003396 37.5760073,-4.61968924 C38.5202328,-5.20887 40.1023561,-5.09869107 40.8596189,-4.39167416 Z M30.6340031,0.953067423 C31.3878433,1.64051588 33.7323634,6.50880804 34.6372284,9.26583368 C37.6320533,18.3898402 37.1751286,28.1842791 33.3370465,37.1474839 C31.3711578,41.7388398 29.9909714,43.1584038 28.0413403,42.5943217 C26.7283235,42.2144384 25.781531,40.6128026 26.1610181,39.4127456 C26.253002,39.1221966 26.8712194,37.7838842 27.5343592,36.4387653 C30.3430772,30.7434931 31.5114868,24.638134 30.9390474,18.6438047 C30.468432,13.7185088 29.5806803,10.6122287 27.3444018,6.06724152 C25.8439945,3.0179652 25.7742578,2.54534438 26.6466075,1.31763631 C27.4761741,0.150335223 29.5464538,-0.0389683432 30.6340031,0.953067423 Z M18.5041063,5.59717311 C19.9968126,5.59717311 20.770761,6.34290154 22.1047416,9.06717129 C24.1561967,13.2573738 24.9960312,16.8924277 24.9892273,21.5497208 C24.9819127,26.3367613 24.1968407,29.6229862 22.0050567,34.0416292 C20.7497972,36.5714905 20.1294406,37.2393705 18.8728976,37.4108072 C18.48956,37.4631316 17.8790436,37.3725211 17.5158141,37.2100178 C16.7046444,36.8462998 16.0064223,35.9933702 15.8164648,35.1336342 C15.7005223,34.6099653 15.8998921,34.0305687 16.8625144,32.0924405 C20.3976914,24.9733502 20.4357684,18.1163071 16.9788848,11.162698 C15.4609363,8.10874222 15.4275654,7.5008438 16.7114897,6.2965328 C17.3451091,5.70224722 17.6142155,5.59717311 18.5041063,5.59717311 Z M11.6326944,12.7349811 C15.0292537,18.0065536 15.0288259,25.0486463 11.630983,30.2755517 C10.4326252,32.1196662 9.09607764,32.771381 7.69407173,32.1945368 C7.05146786,31.9299373 6.31773575,31.0604171 6.09954136,30.304479 C5.85610487,29.4596321 6.05547465,28.7891997 7.02023611,27.2118117 C8.26094931,25.1830731 8.549736,24.0944712 8.549736,21.4429451 C8.549736,18.7918444 8.26094931,17.7028171 7.02023611,15.6740784 C6.59967712,14.9862046 6.17740681,14.1622023 6.08157241,13.842726 C5.68197719,12.5056898 6.80246956,10.8670441 8.30758301,10.5862792 C9.58337844,10.3480545 10.4595787,10.9142636 11.6326944,12.7349811 Z" id="payWaveIcon" transform="translate(27.041982, 21.515152) rotate(90.000000) translate(-27.041982, -21.515152) "></path>
                </g>
            </g>
        </g>
    </g>
</svg>