<?xml version="1.0" encoding="UTF-8"?>
<svg width="60px" height="60px" viewBox="0 0 60 60" version="1.1" xmlns="http://www.w3.org/2000/svg" xmlns:xlink="http://www.w3.org/1999/xlink">
    <title>php</title>
    <g id="Page-1" stroke="none" stroke-width="1" fill="none" fill-rule="evenodd">
        <g id="Desktop-HD-Copy-3" transform="translate(-576.000000, -86.000000)" fill-rule="nonzero">
            <g id="php" transform="translate(576.000500, 86.000000)">
                <path d="M30,0 C46.5672382,0 60,13.4320991 60,30 C60,46.5679009 46.5672382,60 30,60 C13.4314305,60 0,46.5685695 0,30 C0,13.4314305 13.4314305,0 30,0 Z" id="Path" fill="#4F4B7D"></path>
                <path d="M34.6212,19.141 C37.9992292,19.141 40.7372,21.8798899 40.7372,25.257 C40.7372,28.5164705 38.1921605,31.1804826 34.9806785,31.3666117 L34.9806785,31.3666117 L34.6212,31.377 L29.5332,31.377 L29.5316,33.325 L33.2376,33.3262 L33.4708423,33.3396555 C34.389006,33.4462987 35.1175013,34.174794 35.2241445,35.0929577 L35.2241445,35.0929577 L35.2376,35.3262 L35.2241445,35.5594423 C35.1175013,36.477606 34.389006,37.2061013 33.4708423,37.3127445 L33.4708423,37.3127445 L33.2376,37.3262 L29.5316,37.325 L29.5332,38.859 L29.5197445,39.0922423 C29.4131013,40.010406 28.684606,40.7389013 27.7664423,40.8455445 L27.7664423,40.8455445 L27.5332,40.859 L27.2999577,40.8455445 C26.381794,40.7389013 25.6532987,40.010406 25.5466555,39.0922423 L25.5466555,39.0922423 L25.5332,38.859 L25.5316,37.325 L21.2596,37.3262 L21.0263577,37.3127445 C20.108194,37.2061013 19.3796987,36.477606 19.2730555,35.5594423 L19.2730555,35.5594423 L19.2596,35.3262 L19.2730555,35.0929577 C19.3796987,34.174794 20.108194,33.4462987 21.0263577,33.3396555 L21.0263577,33.3396555 L21.2596,33.3262 L25.5316,33.325 L25.532,31.376 L21.2596,31.377 C20.1550305,31.377 19.2596,30.4815695 19.2596,29.377 C19.2596,28.2724305 20.1550305,27.377 21.2596,27.377 L21.2596,27.377 L25.532,27.376 L25.5332,21.141 L25.5466555,20.9077577 C25.6532987,19.989594 26.381794,19.2610987 27.2999577,19.1544555 L27.2999577,19.1544555 L27.5332,19.141 Z M34.6212,23.141 L29.5332,23.141 L29.5332,27.377 L34.6212,27.377 L34.851809,27.3645739 C35.9121769,27.2495986 36.7372,26.3508232 36.7372,25.257 C36.7372,24.0887284 35.7897896,23.141 34.6212,23.141 L34.6212,23.141 Z" id="Combined-Shape" fill="#241F5D"></path>
            </g>
        </g>
    </g>
</svg>