<?xml version="1.0" encoding="UTF-8"?>
<svg width="60px" height="60px" viewBox="0 0 60 60" version="1.1" xmlns="http://www.w3.org/2000/svg" xmlns:xlink="http://www.w3.org/1999/xlink">
    <title>pound</title>
    <g id="Page-1" stroke="none" stroke-width="1" fill="none" fill-rule="evenodd">
        <g id="Desktop-HD-Copy-3" transform="translate(-1093.000000, -414.000000)" fill-rule="nonzero">
            <g id="pound" transform="translate(1093.000000, 414.000000)">
                <path d="M30,0 C46.5685425,0 60,13.4314575 60,30 C60,46.5685425 46.5685425,60 30,60 C13.4314575,60 0,46.5685425 0,30 C0,13.4314575 13.4314575,0 30,0 Z" id="Path" fill="#4F4B7D"></path>
                <path d="M31.5797145,16.310676 C29.1999651,16.310676 27.2906884,16.9811578 25.8687748,18.3262112 C24.4432762,19.6746559 23.7307112,21.4913756 23.7307112,23.7552091 L23.7307112,28.2977033 L21.7329503,28.2977033 C20.9882986,28.2977033 20.3846391,28.9013628 20.3846391,29.6460145 L20.3846391,30.0720511 C20.3846391,30.8167029 20.9882986,31.4203623 21.7329503,31.4203623 L23.7307112,31.4203623 L23.7307112,39.4022501 L21.7329503,39.4022501 C20.9882986,39.4022501 20.3846391,40.0059096 20.3846391,40.7505613 L20.3846391,41.8016883 C20.3846391,42.54634 20.9882986,43.1499995 21.7329503,43.1499995 L38.668727,43.1499995 C39.4133787,43.1499995 40.0170382,42.54634 40.0170382,41.8016883 L40.0170382,40.7505613 C40.0170382,40.0059096 39.4133787,39.4022501 38.668727,39.4022501 L28.1035509,39.4022501 L28.1035509,31.4203623 L33.1899937,31.4203623 C33.9346454,31.4203623 34.5383049,30.8167029 34.5383049,30.0720511 L34.5383049,29.6460145 C34.5383049,28.9013628 33.9346454,28.2977033 33.1899937,28.2977033 L28.1035509,28.2977033 L28.1035509,24.0125993 C28.1035509,22.6883982 28.4223809,21.6977478 29.0494298,21.0259098 C29.6722277,20.3586263 30.5820491,20.0216554 31.8003346,20.0216554 C32.8849007,20.0216554 33.9835258,20.2579189 35.0981148,20.7322121 C35.613927,20.9517066 36.1226412,21.2169399 36.6243162,21.5280443 C36.8258767,21.6530382 37.0809435,21.830021 37.3882446,22.0584117 C37.455422,22.1083389 37.527102,22.1519031 37.6023565,22.1885402 C38.2719796,22.5145408 39.0790751,22.2359462 39.404913,21.5662671 L39.8509912,20.6499983 C40.1255397,20.0860609 39.9749443,19.4072747 39.4876784,19.0123239 C39.1050853,18.702274 38.7880967,18.4653359 38.5347463,18.3005671 C37.8190741,17.835123 37.0508103,17.4480842 36.2303366,17.1395301 C34.7609259,16.5869311 33.2101302,16.310676 31.5797145,16.310676 Z" id="Path" fill="#241F5D"></path>
            </g>
        </g>
    </g>
</svg>