<?xml version="1.0" encoding="UTF-8"?>
<svg width="60px" height="60px" viewBox="0 0 60 60" version="1.1" xmlns="http://www.w3.org/2000/svg" xmlns:xlink="http://www.w3.org/1999/xlink">
    <title>pound</title>
    <g id="Page-1" stroke="none" stroke-width="1" fill="none" fill-rule="evenodd" fill-opacity="0.2">
        <g id="Desktop-HD-Copy-3" transform="translate(-1108.000000, -420.000000)" fill="#FFFFFF" fill-rule="nonzero">
            <path d="M1138,420 C1154.56854,420 1168,433.431458 1168,450 C1168,466.568542 1154.56854,480 1138,480 C1121.43146,480 1108,466.568542 1108,450 C1108,433.431458 1121.43146,420 1138,420 Z M1139.57971,436.310676 C1137.19997,436.310676 1135.29069,436.981158 1133.86877,438.326211 C1132.44328,439.674656 1131.73071,441.491376 1131.73071,443.755209 L1131.73071,448.297703 L1129.73295,448.297703 C1128.9883,448.297703 1128.38464,448.901363 1128.38464,449.646015 L1128.38464,450.072051 C1128.38464,450.816703 1128.9883,451.420362 1129.73295,451.420362 L1131.73071,451.420362 L1131.73071,459.40225 L1129.73295,459.40225 C1128.9883,459.40225 1128.38464,460.00591 1128.38464,460.750561 L1128.38464,461.801688 C1128.38464,462.54634 1128.9883,463.149999 1129.73295,463.149999 L1146.66873,463.149999 C1147.41338,463.149999 1148.01704,462.54634 1148.01704,461.801688 L1148.01704,460.750561 C1148.01704,460.00591 1147.41338,459.40225 1146.66873,459.40225 L1136.10355,459.40225 L1136.10355,451.420362 L1141.18999,451.420362 C1141.93465,451.420362 1142.5383,450.816703 1142.5383,450.072051 L1142.5383,449.646015 C1142.5383,448.901363 1141.93465,448.297703 1141.18999,448.297703 L1136.10355,448.297703 L1136.10355,444.012599 C1136.10355,442.688398 1136.42238,441.697748 1137.04943,441.02591 C1137.67223,440.358626 1138.58205,440.021655 1139.80033,440.021655 C1140.8849,440.021655 1141.98353,440.257919 1143.09811,440.732212 C1143.61393,440.951707 1144.12264,441.21694 1144.62432,441.528044 C1144.82588,441.653038 1145.08094,441.830021 1145.38824,442.058412 C1145.45542,442.108339 1145.5271,442.151903 1145.60236,442.18854 C1146.27198,442.514541 1147.07908,442.235946 1147.40491,441.566267 L1147.85099,440.649998 C1148.12554,440.086061 1147.97494,439.407275 1147.48768,439.012324 C1147.10509,438.702274 1146.7881,438.465336 1146.53475,438.300567 C1145.81907,437.835123 1145.05081,437.448084 1144.23034,437.13953 C1142.76093,436.586931 1141.21013,436.310676 1139.57971,436.310676 Z" id="pound"></path>
        </g>
    </g>
</svg>