<?xml version="1.0" encoding="UTF-8"?>
<svg width="48px" height="48px" viewBox="0 0 48 48" version="1.1" xmlns="http://www.w3.org/2000/svg" xmlns:xlink="http://www.w3.org/1999/xlink">
    <title>riyal</title>
    <g id="Page-1" stroke="none" stroke-width="1" fill="none" fill-rule="evenodd">
        <g id="Desktop-HD-Copy-3" transform="translate(-223.000000, -384.000000)" fill-rule="nonzero">
            <g id="riyal" transform="translate(223.000000, 384.000000)">
                <path d="M24,0 C37.254834,0 48,10.745166 48,24 C48,37.254834 37.254834,48 24,48 C10.745166,48 0,37.254834 0,24 C0,10.745166 10.745166,0 24,0 Z" id="Path" fill="#4F4B7D"></path>
                <polygon id="Path" fill="#241F5D" points="29.0525143 36.4337755 28.2971108 38.1211137 26.2244185 36.5220307 25.1914954 39.185885 27.8130691 41.2493172 28.6207055 39.4287681 30.6187407 41.0231725 31.7718829 38.4606342"></polygon>
                <path d="M34.5272025,21.3529295 L33.2809592,24.519061 L33.5043034,24.7112723 C34.8130735,25.8376078 35.4479034,26.9110475 35.4479034,27.927182 C35.4479034,28.081739 35.4181444,28.2470666 35.3568442,28.4241562 C34.1771214,31.2116647 32.5931936,32.5737648 30.5988626,32.5737648 C30.3810625,32.5737648 30.1361892,32.5488949 29.8647821,32.4984907 C29.5913311,32.4477069 29.2952947,32.3667903 28.9770603,32.2554083 C28.6018255,32.1196612 28.286124,31.9837897 28.0350096,31.8503852 C27.8940356,31.7610692 27.7723794,31.6591411 27.6941721,31.562886 L27.0140292,32.0338626 C28.4219717,34.4424184 29.888407,35.6811463 31.4466551,35.6811463 C32.6717958,35.6811463 33.90689,34.9648836 35.1592389,33.569409 C36.5950089,31.9741096 37.3152302,30.0401822 37.3152302,27.7879921 C37.3152302,27.1808878 37.2602414,26.5760111 37.1503204,25.973644 C37.0404713,25.371671 36.8841442,24.8014074 36.6811795,24.2631097 C36.477138,23.7219561 36.2343192,23.2318632 35.9523447,22.7932362 C35.6618544,22.3413624 35.3327578,21.9725875 34.9642366,21.6891097 L34.5272025,21.3529295 Z" id="Path" fill="#241F5D"></path>
                <path d="M21.238963,9.47831394 L18.8714044,12.4996014 L18.7877332,12.8174118 L19.1926491,15.4999791 L19.1880022,29.1039686 C19.077041,29.3169754 18.881819,29.6706945 18.6288321,30.0170919 C18.3736697,30.3664682 18.0900624,30.6735465 17.7777853,30.938982 C17.4668003,31.2033192 17.139933,31.4180072 16.7967616,31.5838091 C16.4752057,31.7391676 16.1754386,31.8145476 15.8953566,31.8145476 C15.1523261,31.8145476 14.3752666,31.4429105 13.5606601,30.6748529 C12.8359234,29.9949435 12.4635213,28.8892548 12.4635213,27.3324618 C12.4635213,27.1810681 12.479502,26.949347 12.5118562,26.6419819 C12.5452009,26.3252076 12.5848301,25.9935742 12.630749,25.6470946 C12.6778315,25.2918364 12.7163961,24.9533248 12.7464325,24.6315064 C12.7770535,24.3034239 12.7925154,24.0538249 12.7925154,23.8780237 L12.7925154,23.4631587 L12.3776504,23.4631587 C12.0821556,23.4631587 11.9155002,23.650646 11.7113063,24.0181952 C11.5682382,24.2757177 11.4120895,24.6772428 11.2356689,25.2329677 C10.8681965,26.422835 10.6847698,27.6282103 10.6847698,28.8508962 C10.6847698,29.6922309 10.7938237,30.4711869 11.0129688,31.1867628 C11.2342877,31.9094367 11.5530582,32.5355932 11.9700713,33.0625878 C12.3902032,33.5935236 12.8937551,34.0112165 13.4781192,34.3126741 C14.0694881,34.6177454 14.7210359,34.7700857 15.4271727,34.7700857 C16.8825179,34.7700857 18.2477534,34.2076631 19.509884,33.0977043 C20.9157103,31.8709682 21.6373955,30.5976765 21.6373955,29.2811193 L21.6373955,16.5515779 L22.3956972,14.5962326 L22.4755417,14.3824553 L21.464202,13.0474868 L21.238963,9.47831394 Z" id="Path" fill="#241F5D"></path>
                <path d="M25.3828669,8.89231461 L23.0998686,12.4690119 L23.0347026,12.6922239 L23.0347026,25.6874913 C23.0347026,26.7831639 23.1409182,27.5583118 23.3735805,28.0384872 C23.6144671,28.5356363 23.9965839,28.9047559 24.5067227,29.1343183 C24.8971345,29.3100036 25.3761819,29.4118658 25.9450351,29.4442176 L25.9450351,29.4682191 L31.3707334,29.4682191 C32.088508,29.4682191 32.2790896,28.6228186 32.2790896,26.8642779 C32.2790896,26.0507836 32.1104201,24.9219959 31.7749742,23.4683968 C31.3848127,21.7353269 30.9687705,20.7494878 30.4068162,20.4398395 L29.97118,20.199795 L28.7443813,23.8626656 L29.320847,23.8626656 C29.1942126,23.8626656 29.2321007,23.9027395 29.2912533,24.0044081 C29.4140415,24.2154502 29.5310338,24.4669837 29.6414322,24.7587511 C29.7546066,25.0578549 29.8515432,25.3587621 29.9322796,25.6615235 C29.9931408,25.889753 30.0287775,26.0706006 30.040489,26.1979293 L25.6512974,26.1963405 C25.4566333,26.1963405 25.3828669,26.0966193 25.3828669,25.6874913 L25.3828669,8.89231461 Z" id="Path" fill="#241F5D"></path>
            </g>
        </g>
    </g>
</svg>