<?xml version="1.0" encoding="UTF-8"?>
<svg width="48px" height="48px" viewBox="0 0 48 48" version="1.1" xmlns="http://www.w3.org/2000/svg" xmlns:xlink="http://www.w3.org/1999/xlink">
    <title>riyal</title>
    <g id="Page-1" stroke="none" stroke-width="1" fill="none" fill-rule="evenodd" fill-opacity="0.2">
        <g id="Desktop-HD-Copy-3" transform="translate(-228.000000, -450.000000)" fill="#FFFFFF" fill-rule="nonzero">
            <path d="M252,450 C265.254834,450 276,460.745166 276,474 C276,487.254834 265.254834,498 252,498 C238.745166,498 228,487.254834 228,474 C228,460.745166 238.745166,450 252,450 Z M257.052514,486.433776 L256.297111,488.121114 L254.224419,486.522031 L253.191495,489.185885 L255.813069,491.249317 L256.620706,489.428768 L258.618741,491.023173 L259.771883,488.460634 L257.052514,486.433776 Z M262.527202,471.35293 L261.280959,474.519061 L261.504303,474.711272 C262.813073,475.837608 263.447903,476.911048 263.447903,477.927182 C263.447903,478.081739 263.418144,478.247067 263.356844,478.424156 C262.177121,481.211665 260.593194,482.573765 258.598863,482.573765 C258.381063,482.573765 258.136189,482.548895 257.864782,482.498491 C257.591331,482.447707 257.295295,482.36679 256.97706,482.255408 C256.601825,482.119661 256.286124,481.98379 256.03501,481.850385 C255.894036,481.761069 255.772379,481.659141 255.694172,481.562886 L255.014029,482.033863 C256.421972,484.442418 257.888407,485.681146 259.446655,485.681146 C260.671796,485.681146 261.90689,484.964884 263.159239,483.569409 C264.595009,481.97411 265.31523,480.040182 265.31523,477.787992 C265.31523,477.180888 265.260241,476.576011 265.15032,475.973644 C265.040471,475.371671 264.884144,474.801407 264.681179,474.26311 C264.477138,473.721956 264.234319,473.231863 263.952345,472.793236 C263.661854,472.341362 263.332758,471.972587 262.964237,471.68911 L262.527202,471.35293 Z M249.238963,459.478314 L246.871404,462.499601 L246.787733,462.817412 L247.192649,465.499979 L247.188002,479.103969 C247.077041,479.316975 246.881819,479.670694 246.628832,480.017092 C246.37367,480.366468 246.090062,480.673546 245.777785,480.938982 C245.4668,481.203319 245.139933,481.418007 244.796762,481.583809 C244.475206,481.739168 244.175439,481.814548 243.895357,481.814548 C243.152326,481.814548 242.375267,481.442911 241.56066,480.674853 C240.835923,479.994943 240.463521,478.889255 240.463521,477.332462 C240.463521,477.181068 240.479502,476.949347 240.511856,476.641982 C240.545201,476.325208 240.58483,475.993574 240.630749,475.647095 C240.677831,475.291836 240.716396,474.953325 240.746432,474.631506 C240.777053,474.303424 240.792515,474.053825 240.792515,473.878024 L240.792515,473.463159 L240.37765,473.463159 C240.082156,473.463159 239.9155,473.650646 239.711306,474.018195 C239.568238,474.275718 239.41209,474.677243 239.235669,475.232968 C238.868196,476.422835 238.68477,477.62821 238.68477,478.850896 C238.68477,479.692231 238.793824,480.471187 239.012969,481.186763 C239.234288,481.909437 239.553058,482.535593 239.970071,483.062588 C240.390203,483.593524 240.893755,484.011216 241.478119,484.312674 C242.069488,484.617745 242.721036,484.770086 243.427173,484.770086 C244.882518,484.770086 246.247753,484.207663 247.509884,483.097704 C248.91571,481.870968 249.637395,480.597677 249.637395,479.281119 L249.637395,466.551578 L250.395697,464.596233 L250.475542,464.382455 L249.464202,463.047487 L249.238963,459.478314 Z M253.382867,458.892315 L251.099869,462.469012 L251.034703,462.692224 L251.034703,475.687491 C251.034703,476.783164 251.140918,477.558312 251.37358,478.038487 C251.614467,478.535636 251.996584,478.904756 252.506723,479.134318 C252.897134,479.310004 253.376182,479.411866 253.945035,479.444218 L253.945035,479.468219 L259.370733,479.468219 C260.088508,479.468219 260.27909,478.622819 260.27909,476.864278 C260.27909,476.050784 260.11042,474.921996 259.774974,473.468397 C259.384813,471.735327 258.968771,470.749488 258.406816,470.439839 L257.97118,470.199795 L256.744381,473.862666 L257.320847,473.862666 C257.194213,473.862666 257.232101,473.90274 257.291253,474.004408 C257.414041,474.21545 257.531034,474.466984 257.641432,474.758751 C257.754607,475.057855 257.851543,475.358762 257.93228,475.661523 C257.993141,475.889753 258.028777,476.070601 258.040489,476.197929 L253.651297,476.196341 C253.456633,476.196341 253.382867,476.096619 253.382867,475.687491 L253.382867,458.892315 Z" id="riyal"></path>
        </g>
    </g>
</svg>