<?xml version="1.0" encoding="UTF-8"?>
<svg width="60px" height="60px" viewBox="0 0 60 60" version="1.1" xmlns="http://www.w3.org/2000/svg" xmlns:xlink="http://www.w3.org/1999/xlink">
    <title>rmb</title>
    <g id="Page-1" stroke="none" stroke-width="1" fill="none" fill-rule="evenodd" fill-opacity="0.2">
        <g id="Desktop-HD-Copy-3" transform="translate(-379.000000, -608.000000)" fill="#FFFFFF" fill-rule="nonzero">
            <path d="M409,608 C425.568542,608 439,621.431458 439,638 C439,654.568542 425.568542,668 409,668 C392.431458,668 379,654.568542 379,638 C379,621.431458 392.431458,608 409,608 Z M402.042626,624.632927 C401.642813,624.051567 400.862403,623.876761 400.252795,624.232018 L398.855452,625.046339 C398.805627,625.076344 398.805627,625.076344 398.757608,625.109162 C398.148931,625.538135 398.003251,626.379317 398.432224,626.987995 L404.925357,636.201223 L400.929311,636.201223 C400.184659,636.201223 399.581,636.804883 399.581,637.549535 L399.581,638.172775 C399.581,638.917427 400.184659,639.521086 400.929311,639.521086 L406.642274,639.521086 L406.642274,642.231075 L400.929311,642.231075 C400.184659,642.231075 399.581,642.834735 399.581,643.579386 L399.581,644.202627 C399.581,644.947279 400.184659,645.550938 400.929311,645.550938 L406.642274,645.550938 L406.642274,650.94654 C406.642274,651.691192 407.245933,652.294851 407.990585,652.294851 L410.002278,652.294851 C410.74693,652.294851 411.350589,651.691192 411.350589,650.94654 L411.350589,645.550938 L417.103222,645.550938 C417.847874,645.550938 418.451533,644.947279 418.451533,644.202627 L418.451533,643.579386 C418.451533,642.834735 417.847874,642.231075 417.103222,642.231075 L411.350589,642.231075 L411.350589,639.521086 L417.103222,639.521086 C417.847874,639.521086 418.451533,638.917427 418.451533,638.172775 L418.451533,637.549535 C418.451533,636.804883 417.847874,636.201223 417.103222,636.201223 L413.107176,636.201223 L419.567241,627.034915 C419.591778,626.999296 419.591778,626.999296 419.61477,626.962659 C420.003837,626.327732 419.804528,625.49762 419.169601,625.108553 L417.793109,624.265075 C417.181705,623.890423 416.384015,624.059861 415.97769,624.650691 L409.016266,634.773169 L402.042626,624.632927 Z" id="rmb"></path>
        </g>
    </g>
</svg>