<?xml version="1.0" encoding="UTF-8"?>
<svg width="60px" height="60px" viewBox="0 0 60 60" version="1.1" xmlns="http://www.w3.org/2000/svg" xmlns:xlink="http://www.w3.org/1999/xlink">
    <title>rmb</title>
    <g id="Page-1" stroke="none" stroke-width="1" fill="none" fill-rule="evenodd">
        <g id="Desktop-HD-Copy-3" transform="translate(-409.000000, -602.000000)" fill-rule="nonzero">
            <g id="rmb" transform="translate(409.000000, 602.000000)">
                <path d="M30,0 C46.5685425,0 60,13.4314575 60,30 C60,46.5685425 46.5685425,60 30,60 C13.4314575,60 0,46.5685425 0,30 C0,13.4314575 13.4314575,0 30,0 Z" id="Path" fill="#4F4B7D"></path>
                <path d="M23.0426263,16.6329271 C22.6428134,16.0515666 21.8624035,15.8767606 21.2527951,16.2320183 L19.8554524,17.0463393 C19.805627,17.0763438 19.805627,17.0763438 19.7576084,17.1091622 C19.1489307,17.5381351 19.0032512,18.379317 19.432224,18.9879946 L25.9253566,28.2012233 L21.9293107,28.2012233 C21.184659,28.2012233 20.5809995,28.8048828 20.5809995,29.5495345 L20.5809995,30.1727749 C20.5809995,30.9174267 21.184659,31.5210861 21.9293107,31.5210861 L27.6422735,31.5210861 L27.6422735,34.2310753 L21.9293107,34.2310753 C21.184659,34.2310753 20.5809995,34.8347348 20.5809995,35.5793865 L20.5809995,36.2026269 C20.5809995,36.9472786 21.184659,37.5509381 21.9293107,37.5509381 L27.6422735,37.5509381 L27.6422735,42.9465403 C27.6422735,43.691192 28.245933,44.2948515 28.9905847,44.2948515 L31.0022779,44.2948515 C31.7469296,44.2948515 32.3505891,43.691192 32.3505891,42.9465403 L32.3505891,37.5509381 L38.103222,37.5509381 C38.8478737,37.5509381 39.4515332,36.9472786 39.4515332,36.2026269 L39.4515332,35.5793865 C39.4515332,34.8347348 38.8478737,34.2310753 38.103222,34.2310753 L32.3505891,34.2310753 L32.3505891,31.5210861 L38.103222,31.5210861 C38.8478737,31.5210861 39.4515332,30.9174267 39.4515332,30.1727749 L39.4515332,29.5495345 C39.4515332,28.8048828 38.8478737,28.2012233 38.103222,28.2012233 L34.1071761,28.2012233 L40.5672408,19.0349153 C40.5917783,18.9992956 40.5917783,18.9992956 40.6147705,18.9626594 C41.0038375,18.3277318 40.8045281,17.4976202 40.1696005,17.1085532 L38.7931092,16.2650754 C38.1817047,15.8904227 37.3840151,16.0598609 36.9776899,16.6506909 L30.0162663,26.773169 L23.0426263,16.6329271 Z" id="Path" fill="#241F5D"></path>
            </g>
        </g>
    </g>
</svg>