<?xml version="1.0" encoding="UTF-8"?>
<svg width="60px" height="60px" viewBox="0 0 60 60" version="1.1" xmlns="http://www.w3.org/2000/svg" xmlns:xlink="http://www.w3.org/1999/xlink">
    <title>rupee</title>
    <g id="Page-1" stroke="none" stroke-width="1" fill="none" fill-rule="evenodd">
        <g id="Desktop-HD-Copy-3" transform="translate(-1164.000000, -538.000000)" fill-rule="nonzero">
            <g id="rupee" transform="translate(1164.000500, 538.000000)">
                <path d="M30,0 C46.5685695,0 60,13.4314305 60,30 C60,46.5685695 46.5685695,60 30,60 C13.4314305,60 0,46.5685695 0,30 C0,13.4314305 13.4314305,0 30,0 Z" id="Path" fill="#4F4B7D"></path>
                <path d="M39.3246,16.873 L23.8866,16.873 C22.7820305,16.873 21.8866,17.7684305 21.8866,18.873 C21.8866,19.9775695 22.7820305,20.873 23.8866,20.873 L31.3766,20.873 C32.53919,20.873 33.5653887,21.4576144 34.1770701,22.3489959 L23.8866,22.3496 L23.6533577,22.3630555 C22.6586804,22.4785857 21.8866,23.3239283 21.8866,24.3496 C21.8866,25.4541695 22.7820305,26.3496 23.8866,26.3496 L34.0566505,26.3504608 C33.4354998,27.1491243 32.4657326,27.663 31.3766,27.663 L23.8866,27.663 C22.1775557,27.663 21.2558571,29.6679247 22.3685545,30.9651282 L32.9825545,43.3391282 C33.7017001,44.1775216 34.9643349,44.274191 35.8027282,43.5550455 C36.6411216,42.8358999 36.737791,41.5732651 36.0186455,40.7348718 L28.2370997,31.663 L31.3766,31.663 C34.7362829,31.663 37.5732698,29.4206136 38.4729894,26.3507151 L39.3246,26.3496 L39.5578423,26.3361445 C40.5525196,26.2206143 41.3246,25.3752717 41.3246,24.3496 C41.3246,23.2450305 40.4291695,22.3496 39.3246,22.3496 L38.519618,22.3497679 C38.3812321,21.8328803 38.1882354,21.338332 37.9471926,20.8726811 L39.3246,20.873 L39.5578423,20.8595445 C40.5525196,20.7440143 41.3246,19.8986717 41.3246,18.873 C41.3246,17.7684305 40.4291695,16.873 39.3246,16.873 Z" id="Path" fill="#241F5D"></path>
            </g>
        </g>
    </g>
</svg>