<?xml version="1.0" encoding="UTF-8"?>
<svg width="60px" height="60px" viewBox="0 0 60 60" version="1.1" xmlns="http://www.w3.org/2000/svg" xmlns:xlink="http://www.w3.org/1999/xlink">
    <title>rupee</title>
    <g id="Page-1" stroke="none" stroke-width="1" fill="none" fill-rule="evenodd" fill-opacity="0.2">
        <g id="Desktop-HD-Copy-3" transform="translate(-1217.000000, -601.000000)" fill="#FFFFFF" fill-rule="nonzero">
            <path d="M1247.0005,601 C1263.56907,601 1277.0005,614.431431 1277.0005,631 C1277.0005,647.568569 1263.56907,661 1247.0005,661 C1230.43193,661 1217.0005,647.568569 1217.0005,631 C1217.0005,614.431431 1230.43193,601 1247.0005,601 Z M1256.3251,617.873 L1240.8871,617.873 C1239.78253,617.873 1238.8871,618.768431 1238.8871,619.873 C1238.8871,620.977569 1239.78253,621.873 1240.8871,621.873 L1248.3771,621.873 C1249.53969,621.873 1250.56589,622.457614 1251.17757,623.348996 L1240.8871,623.3496 L1240.65386,623.363055 C1239.65918,623.478586 1238.8871,624.323928 1238.8871,625.3496 C1238.8871,626.454169 1239.78253,627.3496 1240.8871,627.3496 L1251.05715,627.350461 C1250.436,628.149124 1249.46623,628.663 1248.3771,628.663 L1240.8871,628.663 C1239.17806,628.663 1238.25636,630.667925 1239.36905,631.965128 L1249.98305,644.339128 C1250.7022,645.177522 1251.96483,645.274191 1252.80323,644.555045 C1253.64162,643.8359 1253.73829,642.573265 1253.01915,641.734872 L1245.2376,632.663 L1248.3771,632.663 C1251.73678,632.663 1254.57377,630.420614 1255.47349,627.350715 L1256.3251,627.3496 L1256.55834,627.336145 C1257.55302,627.220614 1258.3251,626.375272 1258.3251,625.3496 C1258.3251,624.245031 1257.42967,623.3496 1256.3251,623.3496 L1255.52012,623.349768 C1255.38173,622.83288 1255.18874,622.338332 1254.94769,621.872681 L1256.3251,621.873 L1256.55834,621.859545 C1257.55302,621.744014 1258.3251,620.898672 1258.3251,619.873 C1258.3251,618.768431 1257.42967,617.873 1256.3251,617.873 Z" id="rupee"></path>
        </g>
    </g>
</svg>