<?xml version="1.0" encoding="UTF-8"?>
<svg width="101px" height="32px" viewBox="0 0 101 32" version="1.1" xmlns="http://www.w3.org/2000/svg" xmlns:xlink="http://www.w3.org/1999/xlink">
    <title>visaLogo 2</title>
    <g id="Page-1" stroke="none" stroke-width="1" fill="none" fill-rule="evenodd">
        <g id="Desktop-HD-Copy-9" transform="translate(-756.000000, -157.000000)" fill="#0E4595" fill-rule="nonzero">
            <g id="visa" transform="translate(560.000000, 132.000000)">
                <g id="visaLogo-2" transform="translate(196.571429, 25.757576)">
                    <path d="M65.0470125,9.9475983e-14 C68.1670405,9.9475983e-14 70.6652348,0.638245832 72.2597114,1.23300217 L72.2597114,1.23300217 L71.1688252,7.59581523 L70.4476005,7.25704706 C68.9623182,6.66229072 67.0560952,6.09167856 64.4244246,6.13231874 C61.2739307,6.13231874 59.8157961,7.43715356 59.8157961,8.6574088 C59.7975468,10.0325766 61.5202209,10.9388077 64.333178,12.2968797 C68.9760428,14.3920236 71.1201101,16.9336097 71.0897951,20.273153 C71.0273553,26.3669311 65.5356716,30.3030303 57.0762887,30.3030303 C53.4672998,30.2662892 49.9914857,29.5562107 48.1118072,28.7368086 L48.1118072,28.7368086 L49.2413035,22.1647961 L50.2783467,22.6314834 C52.921178,23.7275686 54.6323898,24.1725111 57.8534678,24.1725111 C60.166605,24.1725111 62.648209,23.2734783 62.6681174,21.3056536 C62.6830486,20.020764 61.6298676,19.1029857 58.4974722,17.6640832 C55.444861,16.2598224 51.4012069,13.9065909 51.4460006,9.6882598 C51.49366,3.98168822 57.0951412,9.9475983e-14 65.0470125,9.9475983e-14 Z M48.2203981,0.599855105 L43.1853994,29.9570639 L35.1412259,29.9570639 L40.1727557,0.599855105 L48.2203981,0.599855105 Z M92.9684509,0.599855105 L99.4820958,29.9383184 L92.0146607,29.9383184 C92.0146607,29.9383184 91.2762425,26.5669827 91.0355327,25.539281 L91.0355327,25.539281 L90.6587687,25.539079 C90.6050568,25.5390353 90.547619,25.538985 90.486679,25.5389283 L89.8497023,25.5382587 C89.7697632,25.5381677 89.6869932,25.5380717 89.6016162,25.5379709 L89.0598591,25.5373127 C88.9649488,25.5371946 88.867879,25.5370726 88.7688734,25.536947 L88.1534007,25.5361542 C87.4124256,25.535187 86.5985278,25.5340847 85.7884612,25.5329825 L85.096847,25.5320409 C84.5242673,25.5312614 83.9648311,25.5305017 83.4465099,25.5298108 L82.84605,25.529018 C82.5574778,25.5286413 82.287735,25.5282964 82.0428634,25.5279941 L81.210345,25.5270367 C81.1544092,25.5269801 81.102132,25.5269297 81.0537372,25.526886 L80.7290485,25.526684 C80.416548,26.3208922 79.0347286,29.9383184 79.0347286,29.9383184 L79.0347286,29.9383184 L70.5840933,29.9383184 L82.5358806,3.03436705 C83.3819848,1.12262883 84.8235292,0.599855105 86.7499621,0.599855105 L86.7499621,0.599855105 L92.9684509,0.599855105 Z M13.0794738,0.599855105 C14.827335,0.664639456 16.2402235,1.21935546 16.7273744,3.07830644 L16.7273744,3.07830644 L19.4672916,16.1741804 C19.5108638,16.2999963 19.5522694,16.4255888 19.5914597,16.5509021 L19.5914597,16.5509021 L20.4309278,20.6192694 L28.3098018,0.599855105 L36.8343392,0.599855105 L24.1647961,29.9005275 L15.6502128,29.9102752 L8.50927097,4.46159704 C6.02207593,3.08338572 3.18052641,1.97619671 -1.24344979e-14,1.21065757 L-1.24344979e-14,1.21065757 L0.102708905,0.599855105 Z M87.3755664,8.54793525 C87.2908869,8.77756728 87.1931153,9.03652166 87.0918115,9.30190758 L86.9691634,9.62199283 C86.6203239,10.5293462 86.274858,11.4052013 86.3085099,11.3498584 C86.3085099,11.3498584 85.4603466,13.5247512 84.6157458,15.6875689 L84.4212888,16.185471 C83.8727034,17.5899452 83.3536506,18.9173372 83.1022124,19.5563262 L83.1022124,19.5561762 L89.7825142,19.5561762 C89.460512,18.0866812 87.9195767,11.0790239 87.9195767,11.0790239 L87.9195767,11.0790239 Z" id="visaLogo"></path>
                </g>
            </g>
        </g>
    </g>
</svg>