<?xml version="1.0" encoding="UTF-8"?>
<svg width="172px" height="168px" viewBox="0 0 172 168" version="1.1" xmlns="http://www.w3.org/2000/svg" xmlns:xlink="http://www.w3.org/1999/xlink">
    <!-- Generator: Sketch 64 (93537) - https://sketch.com -->
    <title>5/8</title>
    <desc>Created with Sketch.</desc>
    <g id="Page-1" stroke="none" stroke-width="1" fill="none" fill-rule="evenodd">
        <g id="4-copy-2" transform="translate(-1363.000000, -574.000000)">
            <g id="Group-11" transform="translate(374.000000, 252.000000)">
                <g id="Group-9" transform="translate(500.000000, 0.000000)">
                    <g id="Group-8" transform="translate(489.000000, 322.000000)">
                        <g id="5/8">
                            <path d="M132.677734,45.8632812 C143.322266,45.8632812 152.111328,48.890625 159.044922,54.9453125 C166.125,61 169.665039,68.5439453 169.665039,77.5771484 C169.665039,83.4365234 168.444336,88.3193359 166.00293,92.2255859 C163.561523,96.1318359 159.630859,99.4277344 154.210938,102.113281 C165.880859,107.191406 171.71582,116.078125 171.71582,128.773438 C171.71582,138.636719 168.053711,146.81543 160.729492,153.30957 C153.405273,159.754883 144.201172,162.977539 133.117188,162.977539 C122.375,162.977539 113.268555,159.681641 105.797852,153.089844 C98.3271484,146.449219 94.5917969,138.368164 94.5917969,128.84668 C94.5917969,116.151367 101.012695,107.240234 113.854492,102.113281 C102.526367,98.2558594 96.8623047,90.3701172 96.8623047,78.4560547 C96.8623047,69.0322266 100.231445,61.2441406 106.969727,55.0917969 C113.756836,48.9394531 122.326172,45.8632812 132.677734,45.8632812 Z M133.117188,114.051758 C132.042969,114.051758 131.054199,114.344727 130.150879,114.930664 C129.247559,115.516602 128.466309,116.322266 127.807129,117.347656 C127.147949,118.373047 126.635254,119.605957 126.269043,121.046387 C125.902832,122.486816 125.719727,124.061523 125.719727,125.770508 C125.719727,129.139648 126.415527,131.837402 127.807129,133.86377 C129.19873,135.890137 131.017578,136.90332 133.263672,136.90332 C134.337891,136.90332 135.32666,136.622559 136.22998,136.061035 C137.133301,135.499512 137.902344,134.718262 138.537109,133.717285 C139.171875,132.716309 139.672363,131.52002 140.038574,130.128418 C140.404785,128.736816 140.587891,127.186523 140.587891,125.477539 C140.587891,117.860352 138.097656,114.051758 133.117188,114.051758 Z M133.19043,70.1796875 C131.286133,70.1796875 129.772461,71.0341797 128.649414,72.7431641 C127.526367,74.4521484 126.964844,76.7226562 126.964844,79.5546875 C126.964844,86.4394531 129.088867,89.8818359 133.336914,89.8818359 C137.536133,89.8818359 139.635742,86.6103516 139.635742,80.0673828 C139.635742,77.0888672 139.049805,74.6962891 137.87793,72.8896484 C136.706055,71.0830078 135.143555,70.1796875 133.19043,70.1796875 Z" id="8" fill="#E9E0D8" fill-rule="nonzero"></path>
                            <path d="M31.1113281,116.977539 C43.4648438,116.977539 53.6943359,113.071289 61.7998047,105.258789 C70.0029297,97.4462891 74.1044922,87.6806641 74.1044922,75.9619141 C74.1044922,66.0009766 70.9306641,57.7001953 64.5830078,51.0595703 C58.1865234,44.3212891 50.3496094,40.9521484 41.0722656,40.9521484 C39.7539062,40.9521484 38.0449219,41.0253906 35.9453125,41.171875 L35.9453125,41.171875 L38.3623047,28.5009766 L70.5888672,28.5009766 L70.5888672,1.9140625 L14.3388672,1.9140625 L5.54980469,67.8320312 C12.4833984,65.1953125 19.0996094,63.8769531 25.3984375,63.8769531 C31.1601563,63.8769531 35.6279297,64.987793 38.8017578,67.2094727 C41.9755859,69.4311523 43.5625,72.5439453 43.5625,76.5478516 C43.5625,80.3076172 42.0976562,83.359375 39.1679688,85.703125 C36.2871094,88.046875 32.5273438,89.21875 27.8886719,89.21875 C20.7597656,89.21875 12.6787109,86.6064453 3.64550781,81.3818359 L3.64550781,81.3818359 L0.056640625,108.188477 C10.2128906,114.047852 20.5644531,116.977539 31.1113281,116.977539 Z" id="5" fill="#E9E0D8" fill-rule="nonzero"></path>
                            <line x1="110" y1="0" x2="59" y2="168" id="Line-3" stroke="#E9E0D8" stroke-linecap="round"></line>
                        </g>
                    </g>
                </g>
            </g>
        </g>
    </g>
</svg>