<?xml version="1.0" encoding="UTF-8"?>
<svg width="16px" height="16px" viewBox="0 0 16 16" version="1.1" xmlns="http://www.w3.org/2000/svg" xmlns:xlink="http://www.w3.org/1999/xlink">
    <title>Group 3</title>
    <defs>
        <polygon id="path-1" points="0.0002 0 16 0 16 16 0.0002 16"></polygon>
    </defs>
    <g id="Page-1" stroke="none" stroke-width="1" fill="none" fill-rule="evenodd">
        <g id="default-copy-10" transform="translate(-388.000000, -553.000000)">
            <g id="Group-3" transform="translate(388.000000, 553.000000)">
                <mask id="mask-2" fill="white">
                    <use xlink:href="#path-1"></use>
                </mask>
                <g id="Clip-2"></g>
                <path d="M8.7072,0.293 C9.0982,0.684 9.0982,1.316 8.7072,1.707 L3.4142,7 L15.0002,7 C15.5522,7 16.0002,7.447 16.0002,8 C16.0002,8.553 15.5522,9 15.0002,9 L3.4142,9 L8.7072,14.293 C9.0982,14.684 9.0982,15.316 8.7072,15.707 C8.3162,16.098 7.6832,16.098 7.2922,15.707 L0.2922,8.707 L0.2202,8.625 C0.2172,8.623 0.2152,8.62 0.2122,8.617 L0.2922,8.707 C0.2572,8.672 0.2252,8.635 0.1962,8.596 C0.1782,8.571 0.1622,8.546 0.1462,8.521 C0.1382,8.509 0.1312,8.496 0.1242,8.484 C0.1142,8.464 0.1032,8.444 0.0932,8.423 C0.0852,8.406 0.0782,8.389 0.0712,8.371 C0.0632,8.352 0.0562,8.332 0.0492,8.312 C0.0442,8.297 0.0402,8.281 0.0362,8.266 C0.0302,8.244 0.0242,8.223 0.0202,8.201 C0.0172,8.184 0.0142,8.166 0.0112,8.148 C0.0082,8.13 0.0052,8.109 0.0042,8.09 C0.0012,8.066 0.0002,8.043 0.0002,8.02 L0.0002,8 L0.0002,7.981 C0.0002,7.958 0.0012,7.935 0.0042,7.911 L0.0002,8 C0.0002,7.949 0.0032,7.899 0.0112,7.851 C0.0142,7.834 0.0172,7.816 0.0202,7.799 C0.0242,7.777 0.0302,7.756 0.0362,7.734 C0.0402,7.719 0.0442,7.703 0.0492,7.688 C0.0562,7.668 0.0632,7.648 0.0712,7.629 C0.0782,7.611 0.0852,7.594 0.0932,7.577 C0.1032,7.556 0.1142,7.536 0.1242,7.516 C0.1312,7.504 0.1382,7.491 0.1462,7.48 C0.1622,7.454 0.1782,7.429 0.1962,7.405 C0.2022,7.397 0.2072,7.391 0.2132,7.383 C0.2372,7.352 0.2642,7.321 0.2922,7.293 L7.2922,0.293 C7.6832,-0.098 8.3162,-0.098 8.7072,0.293" id="Fill-1" fill="#000000" mask="url(#mask-2)"></path>
            </g>
        </g>
    </g>
</svg>