<?xml version="1.0" encoding="UTF-8"?>
<svg width="32px" height="32px" viewBox="0 0 32 32" version="1.1" xmlns="http://www.w3.org/2000/svg" xmlns:xlink="http://www.w3.org/1999/xlink">
    <!-- Generator: Sketch 64 (93537) - https://sketch.com -->
    <title>arrow</title>
    <desc>Created with Sketch.</desc>
    <defs>
        <path d="M17.4142136,0.585786438 C18.1952621,1.36683502 18.1952621,2.63316498 17.4142136,3.41421356 L6.828,14 L30,14 C31.1045695,14 32,14.8954305 32,16 C32,17.1045695 31.1045695,18 30,18 L6.828,18 L17.4142136,28.5857864 C18.1952621,29.366835 18.1952621,30.633165 17.4142136,31.4142136 C16.633165,32.1952621 15.366835,32.1952621 14.5857864,31.4142136 L0.585786438,17.4142136 L0.490566285,17.3121469 C0.48580067,17.3066694 0.48106438,17.3011657 0.476357659,17.2956361 L0.585786438,17.4142136 C0.536702473,17.3651296 0.490703126,17.3141291 0.447788395,17.2614529 C0.423787266,17.2318001 0.400725623,17.2017551 0.3785145,17.1710544 C0.368940176,17.1580886 0.359756191,17.1450762 0.350745808,17.1319803 C0.328923722,17.0999531 0.307842812,17.0673111 0.287704539,17.0340349 C0.280300344,17.0221283 0.273181997,17.0100748 0.266200957,16.9979638 C0.163921584,16.8203709 0.0879336907,16.6254426 0.043894763,16.4186908 C0.040169531,16.4003782 0.0364722346,16.3817408 0.0330420162,16.363064 C0.0267202794,16.3295048 0.0214210894,16.2957697 0.0169760475,16.2617659 C0.0146009444,16.2427334 0.0123443592,16.2233869 0.0103697713,16.2040171 C0.00732360426,16.1748166 0.00501388318,16.1457164 0.00333355031,16.1164475 C0.00172601028,16.0881658 0.00067081004,16.0593964 0.000232937832,16.0306194 C7.49991764e-05,16.0202004 0,16.0101089 0,16 L0.000217913623,15.9703845 C0.000646353967,15.9412727 0.00170656228,15.9121684 0.00339853855,15.883094 L0,16 C0,15.9312223 0.0034716889,15.8632555 0.010249386,15.7962652 C0.0123443592,15.7766131 0.0146009444,15.7572666 0.017139527,15.7379501 C0.0214210894,15.7042303 0.0267202794,15.6704952 0.0328513767,15.6370509 C0.0364722346,15.6182592 0.040169531,15.5996218 0.0441339054,15.5810299 C0.0879336907,15.3745574 0.163921584,15.1796291 0.266444383,15.0019387 C0.273181997,14.9899252 0.280300344,14.9778717 0.287555998,14.965878 C0.307842812,14.9326889 0.328923722,14.9000469 0.350910251,14.8680761 C0.359756191,14.8549238 0.368940176,14.8419114 0.378297763,14.8289857 C0.400725623,14.7982449 0.423787266,14.7681999 0.447664868,14.7388452 C0.457289146,14.7268853 0.466941081,14.7153056 0.4767442,14.7038106 C0.511242772,14.6633797 0.547752217,14.6238207 0.585786438,14.5857864 L14.5857864,0.585786438 C15.366835,-0.195262146 16.633165,-0.195262146 17.4142136,0.585786438 Z" id="path-1"></path>
    </defs>
    <g id="Page-1" stroke="none" stroke-width="1" fill="none" fill-rule="evenodd">
        <g id="3-copy-2" transform="translate(-107.000000, -60.000000)">
            <g id="icon-/-arrow-left" transform="translate(107.000000, 60.000000)">
                <mask id="mask-2" fill="white">
                    <use xlink:href="#path-1"></use>
                </mask>
                <use id="arrow" fill="#000000" fill-rule="nonzero" xlink:href="#path-1"></use>
            </g>
        </g>
    </g>
</svg>