<?xml version="1.0" encoding="UTF-8"?>
<svg width="600px" height="200px" viewBox="0 0 600 200" version="1.1" xmlns="http://www.w3.org/2000/svg" xmlns:xlink="http://www.w3.org/1999/xlink">
    <title>Group 14</title>
    <g id="Page-1" stroke="none" stroke-width="1" fill="none" fill-rule="evenodd">
        <g id="Group-14" fill-rule="nonzero">
            <path d="M200,200 L100.25974,200.001002 C100.25974,200.000668 100.25974,200.000334 100.25974,200 C100.25974,144.628074 55.3719256,99.7402597 -5.68434189e-14,99.7402597 L0,0 L0,0 C110.45695,0 200,89.54305 200,200 Z" id="Combined-Shape-Copy-5" fill="#0053D0" transform="translate(100.000000, 100.000000) rotate(-90.000000) translate(-100.000000, -100.000000) "></path>
            <path d="M400,200 L300.25974,200.001002 C300.25974,200.000668 300.25974,200.000334 300.25974,200 C300.25974,144.628074 255.371926,99.7402597 200,99.7402597 L200,0 L200,0 C310.45695,0 400,89.54305 400,200 Z" id="Combined-Shape-Copy-6" fill="#EB1B0F" transform="translate(300.000000, 100.000000) rotate(-90.000000) translate(-300.000000, -100.000000) "></path>
            <path d="M600,200 L500.25974,200.001002 C500.25974,200.000668 500.25974,200.000334 500.25974,200 C500.25974,144.628074 455.371926,99.7402597 400,99.7402597 L400,0 L400,0 C510.45695,0 600,89.54305 600,200 Z" id="Combined-Shape-Copy-7" fill="#000000" transform="translate(500.000000, 100.000000) rotate(-90.000000) translate(-500.000000, -100.000000) "></path>
        </g>
    </g>
</svg>