<?xml version="1.0" encoding="UTF-8"?>
<svg width="90px" height="90px" viewBox="0 0 90 90" version="1.1" xmlns="http://www.w3.org/2000/svg" xmlns:xlink="http://www.w3.org/1999/xlink">
    <title>ad</title>
    <g id="Page-1" stroke="none" stroke-width="1" fill="none" fill-rule="evenodd">
        <g id="Desktop-HD-Copy-17" transform="translate(-864.000000, -247.000000)" fill-rule="nonzero">
            <g id="ad" transform="translate(864.000000, 247.000000)">
                <path d="M25.5116732,85.2023346 C31.4124514,88.0564202 38.0136187,89.6498054 45,89.6498054 C51.9863813,89.6498054 58.5875486,88.0564202 64.4883268,85.2023346 L68.3929961,44.8249027 L64.4883268,4.44747082 C58.5875486,1.59338521 51.9863813,0 45,0 C38.0136187,0 31.4124514,1.59338521 25.5116732,4.44747082 L21.6070039,44.8249027 L25.5116732,85.2023346 Z" id="Path" fill="#FFDA44"></path>
                <path d="M64.4883268,85.2023346 C79.9920772,77.7278651 89.8469794,62.0363515 89.8469794,44.8249027 C89.8469794,27.6134539 79.9920772,11.9219403 64.4883268,4.44747082 L64.4883268,85.2023346 Z" id="Path" fill="#D80027"></path>
                <path d="M25.5116732,85.2023346 L25.5116732,4.44747082 C10.0079228,11.9219403 0.153020627,27.6134539 0.153020627,44.8249027 C0.153020627,62.0363515 10.0079228,77.7278651 25.5116732,85.2023346 Z" id="Path" fill="#0052B4"></path>
                <path d="M45,60.4085603 L45,44.8249027 L56.6964981,44.8249027 L56.6964981,50.6731518 C56.6964981,51.688716 54.7529183,55.4007782 49.9377432,58.4649805 C48.1167315,59.6206226 46.2256809,60.0058366 45,60.4085603 Z M33.3035019,33.1284047 L45,33.1284047 L45,44.8249027 L33.3035019,44.8249027 L33.3035019,33.1284047 Z" id="Shape" fill="#D80027"></path>
                <path d="M50.848249,29.2412451 C50.845682,27.8493326 50.1023494,26.5640309 48.8971736,25.8676269 C47.6919978,25.1712229 46.2072288,25.1690287 45,25.8618677 C44.4098362,25.51835 43.73928,25.3371186 43.0564202,25.3365759 C40.9027237,25.3365759 39.151751,27.0875486 39.151751,29.2412451 L29.4163424,29.2412451 L29.4163424,48.729572 C29.4163424,55.9785992 35.1770428,60.1809339 39.6945525,62.3521401 C39.3480378,62.9474348 39.1666992,63.6244323 39.1692607,64.3132296 C39.1753586,65.6997583 39.9162909,66.9790583 41.1159119,67.6743341 C42.3155329,68.3696099 43.7938903,68.3765649 45,67.692607 C45.5901638,68.0361247 46.26072,68.2173561 46.9435798,68.2178988 C48.3377807,68.2126895 49.6234235,67.4644939 50.3167005,66.2548699 C51.0099776,65.0452458 51.0056886,63.5577461 50.3054475,62.3521401 C54.8229572,60.1809339 60.5836576,55.9785992 60.5836576,48.729572 L60.5836576,29.2412451 L50.848249,29.2412451 L50.848249,29.2412451 Z M54.7529183,48.729572 C54.7529183,49.7451362 54.7529183,52.8268482 49.9377432,55.8910506 C48.3861785,56.8533621 46.7294592,57.6347226 45,58.2198444 C43.7743191,57.7996109 41.8832685,57.0466926 40.0622568,55.8910506 C35.2470817,52.8268482 35.2470817,49.7451362 35.2470817,48.7120623 L35.2470817,35.0719844 L54.7529183,35.0719844 L54.7529183,48.729572 L54.7529183,48.729572 Z" id="Shape" fill="#FF9811"></path>
            </g>
        </g>
    </g>
</svg>