<?xml version="1.0" encoding="UTF-8"?>
<svg width="90px" height="90px" viewBox="0 0 90 90" version="1.1" xmlns="http://www.w3.org/2000/svg" xmlns:xlink="http://www.w3.org/1999/xlink">
    <title>al</title>
    <g id="Page-1" stroke="none" stroke-width="1" fill="none" fill-rule="evenodd">
        <g id="Desktop-HD-Copy-17" transform="translate(-976.000000, -382.000000)" fill-rule="nonzero">
            <g id="al" transform="translate(976.000000, 382.000000)">
                <circle id="Oval" fill="#D80027" cx="45" cy="45" r="45"></circle>
                <path d="M70.4355469,33.3984375 L54.140625,33.3984375 C55.7739356,31.7026511 56.2322593,29.1933293 55.3038734,27.0296531 C54.3754876,24.8659769 52.2411109,23.4691258 49.8867187,23.484375 C47.9214138,23.4817097 46.0859335,24.4654743 45,26.1035156 C43.7745397,24.2478282 41.6058115,23.2437833 39.3979921,23.509983 C37.1901727,23.7761828 35.3222452,25.2669326 34.5729778,27.3607156 C33.8237105,29.4544985 34.3217187,31.7919065 35.859375,33.3984375 L19.5644531,33.3984375 C19.6885075,37.7689592 23.2781584,41.2415563 27.6503906,41.2207031 L27.3867187,41.2207031 C27.3867187,45.5449219 30.9023437,49.0605469 35.2089844,49.0605469 C35.2089844,50.4667969 35.578125,51.7675781 36.2285156,52.8925781 L29.7246094,59.3964844 L34.7167969,64.3710938 L41.7832031,57.3046875 C42.0629447,57.4106029 42.3510595,57.4929214 42.6445312,57.5507812 L38.3730469,67.1835938 L45,74.3554687 L51.6269531,67.1835937 L47.3554687,57.5507812 C47.6489598,57.4930017 47.9370813,57.4106812 48.2167969,57.3046875 L55.2832031,64.3710937 L60.2578125,59.3964844 L53.7539062,52.8925781 C54.4256162,51.7265963 54.7829852,50.4061484 54.7910156,49.0605469 C59.0976562,49.0605469 62.6132812,45.5449219 62.6132812,41.2207031 L62.3496094,41.2207031 C66.6738281,41.2207031 70.4355469,37.7226562 70.4355469,33.3984375 L70.4355469,33.3984375 Z" id="Path" fill="#333333"></path>
            </g>
        </g>
    </g>
</svg>