<?xml version="1.0" encoding="UTF-8"?>
<svg width="90px" height="90px" viewBox="0 0 90 90" version="1.1" xmlns="http://www.w3.org/2000/svg" xmlns:xlink="http://www.w3.org/1999/xlink">
    <title>ar</title>
    <g id="Page-1" stroke="none" stroke-width="1" fill="none" fill-rule="evenodd">
        <g id="Desktop-HD-Copy-17" transform="translate(-850.000000, -455.000000)" fill-rule="nonzero">
            <g id="ar" transform="translate(850.000000, 455.000000)">
                <circle id="Oval" fill="#EEEEEE" cx="45" cy="45" r="45"></circle>
                <path d="M45,-1.27762406e-06 C27.7263421,-0.0041041224 11.9748362,9.87986336 4.46484375,25.4355469 L85.5351563,25.4355469 C78.0251638,9.87986336 62.2736579,-0.0041041224 45,-1.27762406e-06 Z M45,90.0000013 C62.2736579,90.0041041 78.0251638,80.1201366 85.5351563,64.5644531 L4.46484375,64.5644531 C11.9748362,80.1201366 27.7263421,90.0041041 45,90.0000013 Z" id="Shape" fill="#338AF3"></path>
                <polygon id="Path" fill="#FFDA44" points="58.4472656 45 52.9453125 47.5839844 55.8984375 52.9101562 49.921875 51.7675781 49.1660156 57.796875 45.0175781 53.3671875 40.8691406 57.796875 40.1132812 51.7675781 34.1367188 52.9101562 37.0546875 47.5839844 31.5703125 45 37.0722656 42.4160156 34.1015625 37.0898438 40.078125 38.2324219 40.8339844 32.203125 44.9824219 36.6328125 49.1308594 32.203125 49.8867188 38.2324219 55.8632812 37.0898438 52.9453125 42.4160156"></polygon>
            </g>
        </g>
    </g>
</svg>