<?xml version="1.0" encoding="UTF-8"?>
<svg width="90px" height="90px" viewBox="0 0 90 90" version="1.1" xmlns="http://www.w3.org/2000/svg" xmlns:xlink="http://www.w3.org/1999/xlink">
    <title>au</title>
    <g id="Page-1" stroke="none" stroke-width="1" fill="none" fill-rule="evenodd">
        <g id="Desktop-HD-Copy-17" transform="translate(-404.000000, -497.000000)" fill-rule="nonzero">
            <g id="au" transform="translate(404.000000, 497.000000)">
                <path d="M90,45 C90,69.8528137 69.8528137,90 45,90 C20.1471863,90 0,69.8528137 0,45 L45,0 C69.8528137,0 90,20.1471863 90,45 Z" id="Path" fill="#0052B4"></path>
                <g id="Group" fill="#EEEEEE">
                    <polygon id="Path" points="44.8769531 45 45 45 45 44.8769531"></polygon>
                    <path d="M45,23.484375 L45,0 C20.1471863,0 0,20.1471863 0,45 L23.484375,45 L23.484375,31.78125 L36.703125,45 L44.8769531,45 L45,44.8769531 L45,36.703125 L31.78125,23.484375 L45,23.484375 Z" id="Path"></path>
                </g>
                <g id="Group" transform="translate(5.800781, 5.800781)" fill="#D80027">
                    <path d="M16.9628906,0.0703125 C9.91928317,4.08472428 4.08472428,9.91928317 0.0703125,16.9628906 L0.0703125,39.1992188 L11.8125,39.1992188 L11.8125,11.8125 L39.1992188,11.8125 L39.1992188,0.0703125 L16.9628906,0.0703125 Z" id="Path"></path>
                    <polygon id="Path" points="39.1992188 33.6621094 23.203125 17.6660156 17.6835938 17.6660156 39.1992188 39.1992188"></polygon>
                </g>
                <path d="M27.140625,52.8222656 L29.6015625,57.9902344 L35.1914063,56.7070312 L32.6953125,61.8574219 L37.1777344,65.4082031 L31.5878906,66.6738281 L31.6054688,72.3867188 L27.140625,68.8183594 L22.6757813,72.3867188 L22.6757813,66.6738281 L17.1210938,65.390625 L21.6035156,61.8398438 L19.1074219,56.6894531 L24.6796875,57.9726563 L27.140625,52.8222656 Z M67.3769531,62.6132812 L68.6074219,65.1972656 L71.4023438,64.546875 L70.1542969,67.1132812 L72.3867188,68.90625 L69.5917969,69.5214844 L69.5917969,72.3867188 L67.3769531,70.59375 L65.1445312,72.3867188 L65.1445312,69.5214844 L62.3496094,68.90625 L64.5996094,67.1132812 L63.3515625,64.546875 L66.1464844,65.1972656 L67.3769531,62.6132812 Z M55.8808594,35.2089844 L57.1113281,37.7929688 L59.9238281,37.1601562 L58.6582031,39.7265625 L60.9082031,41.5019531 L58.0957031,42.1347656 L58.1132813,45 L55.8808594,43.2070312 L53.6484375,45 L53.6484375,42.1347656 L50.8710938,41.5019531 L53.1035156,39.7441406 L51.8730469,37.1601562 L54.6503906,37.7929688 L55.8808594,35.2089844 Z M67.3769531,19.5644531 L68.6074219,22.1484375 L71.4023438,21.4980469 L70.1367188,24.0820312 L72.3691406,25.8398438 L69.5742188,26.4902344 L69.5742188,29.3554688 L67.359375,27.5625 L65.1269531,29.3554688 L65.1269531,26.4902344 L62.3320313,25.8574219 L64.5820313,24.0820312 L63.3339844,21.4980469 L66.1289062,22.1484375 L67.3769531,19.5644531 Z M77.3964844,31.3066406 L78.6269531,33.890625 L81.4394531,33.2402344 L80.1914062,35.8242188 L82.4238281,37.5820312 L79.6289062,38.2324219 L79.6289062,41.0800781 L77.4140625,39.3046875 L75.1816406,41.0800781 L75.1816406,38.2324219 L72.3867188,37.5996094 L74.6367188,35.8242188 L73.3886719,33.2402344 L76.1660156,33.890625 L77.3964844,31.3066406 Z M70.2421875,45 L71.2265625,47.9882812 L74.3554688,47.9882812 L71.8066406,49.8339844 L72.7734375,52.8222656 L70.2246094,50.9765625 L67.6933594,52.8222656 L68.6601563,49.8339844 L66.1113281,47.9882812 L69.2753906,47.9882812 L70.2421875,45 Z" id="Shape" fill="#EEEEEE"></path>
            </g>
        </g>
    </g>
</svg>