<?xml version="1.0" encoding="UTF-8"?>
<svg width="90px" height="90px" viewBox="0 0 90 90" version="1.1" xmlns="http://www.w3.org/2000/svg" xmlns:xlink="http://www.w3.org/1999/xlink">
    <title>bi</title>
    <g id="Page-1" stroke="none" stroke-width="1" fill="none" fill-rule="evenodd">
        <g id="Desktop-HD-Copy-17" transform="translate(-645.000000, -105.000000)" fill-rule="nonzero">
            <g id="bi" transform="translate(645.000000, 105.000000)">
                <circle id="Oval" fill="#EEEEEE" cx="45" cy="45" r="44.8249027"></circle>
                <path d="M72.2976654,9.43774319 C56.1960849,-2.91695539 33.8039151,-2.91695539 17.7023346,9.43774319 L45,36.7354086 L72.2976654,9.43774319 Z M45,53.2645914 L17.7023346,80.5622568 C33.8039151,92.9169554 56.1960849,92.9169554 72.2976654,80.5622568 L45,53.2645914 Z" id="Shape" fill="#D80027"></path>
                <path d="M36.7354086,45 L9.43774319,17.7023346 C-2.91695539,33.8039151 -2.91695539,56.1960849 9.43774319,72.2976654 L36.7354086,45 Z M53.2645914,45 L80.5622568,72.2976654 C92.9169554,56.1960849 92.9169554,33.8039151 80.5622568,17.7023346 L53.2645914,45 L53.2645914,45 Z" id="Shape" fill="#6DA544"></path>
                <circle id="Oval" fill="#EEEEEE" cx="45" cy="45" r="19.4883268"></circle>
                <path d="M45,31.3424125 L46.6809339,34.2840467 L50.077821,34.2840467 L48.3968872,37.2081712 L50.077821,40.1322957 L46.6984436,40.1322957 L45.0175097,43.0564202 L43.3365759,40.1322957 L39.922179,40.1322957 L41.6031128,37.2081712 L39.922179,34.2840467 L43.3015564,34.2840467 L45,31.3424125 Z M36.4202335,45 L38.1011673,47.9241245 L41.4980545,47.9241245 L39.8171206,50.848249 L41.4980545,53.7723735 L38.118677,53.7723735 L36.4377432,56.6964981 L34.7568093,53.7723735 L31.3424125,53.7723735 L33.0233463,50.848249 L31.3424125,47.9241245 L34.7217899,47.9241245 L36.4202335,45 Z M53.5797665,45 L55.2607004,47.9241245 L58.6575875,47.9241245 L56.9766537,50.848249 L58.6575875,53.7723735 L55.2782101,53.7723735 L53.5972763,56.6964981 L51.9163424,53.7723735 L48.5019455,53.7723735 L50.1828794,50.848249 L48.5019455,47.9241245 L51.881323,47.9241245 L53.5797665,45 Z" id="Shape" fill="#D80027"></path>
            </g>
        </g>
    </g>
</svg>