<?xml version="1.0" encoding="UTF-8"?>
<svg width="90px" height="90px" viewBox="0 0 90 90" version="1.1" xmlns="http://www.w3.org/2000/svg" xmlns:xlink="http://www.w3.org/1999/xlink">
    <title>br</title>
    <g id="Page-1" stroke="none" stroke-width="1" fill="none" fill-rule="evenodd">
        <g id="Desktop-HD-Copy-17" transform="translate(-561.000000, -337.000000)" fill-rule="nonzero">
            <g id="br" transform="translate(561.000000, 337.000000)">
                <circle id="Oval" fill="#6DA544" cx="45" cy="45" r="45"></circle>
                <polygon id="Path" fill="#FFDA44" points="45 17.6132812 82.1777344 45 45 72.3867188 7.82226562 45"></polygon>
                <circle id="Oval" fill="#EEEEEE" cx="45" cy="45" r="15.6445312"></circle>
                <path d="M37.1777344,44.015625 C34.5248237,44.015607 31.887307,44.4186433 29.3554688,45.2109375 C29.4396349,52.0084498 33.90392,57.9736405 40.4018577,59.9711547 C46.8997954,61.9686689 53.9440217,59.5412798 57.8320312,53.9648437 C52.8282175,47.6656911 45.2224513,43.9955043 37.1777344,43.9980456 L37.1777344,44.015625 Z M60.3632812,48.0058594 C60.5531722,47.0152388 60.6473557,46.0086524 60.6445929,45 C60.6472088,37.5715068 55.4256313,31.1654019 48.1491968,29.6700691 C40.8727624,28.1747363 33.5480806,32.0025408 30.6210937,38.8300781 C32.7775301,38.3784812 34.9745232,38.1487688 37.1777344,38.1445312 C46.265625,38.1445312 54.4921875,41.9238281 60.3632812,47.9882812 L60.3632812,48.0058594 Z" id="Shape" fill="#0052B4"></path>
            </g>
        </g>
    </g>
</svg>