<?xml version="1.0" encoding="UTF-8"?>
<svg width="90px" height="90px" viewBox="0 0 90 90" version="1.1" xmlns="http://www.w3.org/2000/svg" xmlns:xlink="http://www.w3.org/1999/xlink">
    <title>ca</title>
    <g id="Page-1" stroke="none" stroke-width="1" fill="none" fill-rule="evenodd">
        <g id="Desktop-HD-Copy-17" transform="translate(-1091.000000, -514.000000)" fill-rule="nonzero">
            <g id="ca" transform="translate(1091.000000, 514.000000)">
                <circle id="Oval" fill="#EEEEEE" cx="45" cy="45" r="45"></circle>
                <path d="M90.0000013,45 C90.0041041,27.7263421 80.1201366,11.9748362 64.5644531,4.46484375 L64.5644531,85.5351563 C80.1201366,78.0251638 90.0041041,62.2736579 90.0000013,45 Z M-1.27762407e-06,45 C-0.0041041224,62.2736579 9.87986336,78.0251638 25.4355469,85.5351563 L25.4355469,4.46484375 C9.87986336,11.9748362 -0.0041041224,27.7263421 -1.27762407e-06,45 L-1.27762407e-06,45 Z M52.8222656,50.8710937 L60.6445313,46.9335937 L56.7421875,45 L56.7421875,41.0800781 L48.9199219,45 L52.8222656,37.1777344 L48.9199219,37.1777344 L45,31.2890625 L41.0800781,37.1601562 L37.1777344,37.1601562 L41.0800781,44.9824219 L33.2578125,41.0625 L33.2578125,45 L29.3554688,46.9511719 L37.1777344,50.8710938 L35.2089844,54.7910156 L43.0664063,54.7910156 L43.0664063,60.6445312 L46.9335938,60.6445312 L46.9335938,54.7910156 L54.7734375,54.7910156 L52.8222656,50.8710937 Z" id="Shape" fill="#D80027"></path>
            </g>
        </g>
    </g>
</svg>