<?xml version="1.0" encoding="UTF-8"?>
<svg width="90px" height="90px" viewBox="0 0 90 90" version="1.1" xmlns="http://www.w3.org/2000/svg" xmlns:xlink="http://www.w3.org/1999/xlink">
    <title>cn</title>
    <g id="Page-1" stroke="none" stroke-width="1" fill="none" fill-rule="evenodd">
        <g id="Desktop-HD-Copy-17" transform="translate(-561.000000, -227.000000)" fill-rule="nonzero">
            <g id="cn" transform="translate(561.000000, 227.000000)">
                <circle id="Oval" fill="#D80027" cx="45" cy="45" r="45"></circle>
                <path d="M24.6269531,27.3867188 L28.5117187,39.3398438 L41.0800781,39.3398438 L30.9199219,46.7402344 L34.8046875,58.6933594 L24.6269531,51.3105469 L14.4492187,58.6933594 L18.3515625,46.7402344 L8.17382812,39.3398438 L20.7421875,39.3398438 L24.6269531,27.3867188 Z M53.3496094,69.6972656 L50.3789062,66.0410156 L45.984375,67.7460938 L48.5332031,63.7910156 L45.5625,60.1171875 L50.1152344,61.3300781 L52.6816406,57.375 L52.9277344,62.0859375 L57.4980469,63.2988281 L53.0859375,64.9863281 L53.3496094,69.6972656 Z M59.2558594,58.9746094 L60.6621094,54.4746094 L56.8125,51.75 L61.5234375,51.6796875 L62.9121094,47.1796875 L64.4414062,51.6445312 L69.1523438,51.5917969 L65.3730469,54.4042969 L66.8847656,58.8691406 L63.0351562,56.1445312 L59.2558594,58.9746094 Z M67.21875,33.0292969 L65.1445312,37.265625 L68.5195312,40.5527344 L63.8613281,39.8847656 L61.7871094,44.1035156 L60.9785156,39.4628906 L56.3027344,38.7949219 L60.4863281,36.5976562 L59.6777344,31.9394531 L63.0527344,35.2265625 L67.21875,33.0292969 Z M53.4726562,20.1972656 L53.1210937,24.890625 L57.4980469,26.6660156 L52.9101562,27.7910156 L52.5761719,32.5019531 L50.0976562,28.4941406 L45.5097656,29.6191406 L48.5507812,26.015625 L46.0546875,22.0253906 L50.4316406,23.8007812 L53.4726562,20.1972656 Z" id="Shape" fill="#FFDA44"></path>
            </g>
        </g>
    </g>
</svg>