<?xml version="1.0" encoding="UTF-8"?>
<svg width="90px" height="90px" viewBox="0 0 90 90" version="1.1" xmlns="http://www.w3.org/2000/svg" xmlns:xlink="http://www.w3.org/1999/xlink">
    <title>ge</title>
    <g id="Page-1" stroke="none" stroke-width="1" fill="none" fill-rule="evenodd">
        <g id="Desktop-HD-Copy-17" transform="translate(-976.000000, -132.000000)" fill-rule="nonzero">
            <g id="ge" transform="translate(976.000000, 132.000000)">
                <circle id="Oval" fill="#EEEEEE" cx="45" cy="45" r="45"></circle>
                <g id="Group" fill="#D80027">
                    <path d="M89.6132812,39.1289063 L50.8710938,39.1289063 L50.8710938,0.38671875 C46.973492,-0.120935835 43.026508,-0.120935835 39.1289062,0.38671875 L39.1289062,39.1289063 L0.38671875,39.1289063 C0.131158854,41.0755326 0.00198207633,43.0366709 5.04674427e-15,45 C5.04674427e-15,46.9863281 0.123046875,48.9550781 0.38671875,50.8710938 L39.1289063,50.8710938 L39.1289063,89.6132813 C43.0264823,90.1213321 46.9735177,90.1213321 50.8710938,89.6132813 L50.8710938,50.8710938 L89.6132813,50.8710938 C89.8688902,48.9244722 89.9980672,46.9633307 90,45 C90,43.0136719 89.8769531,41.0449219 89.6132812,39.1289063 Z" id="Path"></path>
                    <path d="M27.3867188,21.515625 L27.3867188,15.6445312 L21.515625,15.6445312 L21.515625,21.515625 L15.6445312,21.515625 L15.6445312,27.3867188 L21.515625,27.3867188 L21.515625,33.2578125 L27.3867188,33.2578125 L27.3867188,27.3867188 L33.2578125,27.3867188 L33.2578125,21.515625 L27.3867188,21.515625 Z M68.484375,21.515625 L68.484375,15.6445312 L62.6132813,15.6445312 L62.6132813,21.515625 L56.7421875,21.515625 L56.7421875,27.3867188 L62.6132813,27.3867188 L62.6132813,33.2578125 L68.484375,33.2578125 L68.484375,27.3867188 L74.3554688,27.3867188 L74.3554688,21.515625 L68.484375,21.515625 Z M27.3867188,62.6132813 L27.3867188,56.7421875 L21.515625,56.7421875 L21.515625,62.6132813 L15.6445312,62.6132813 L15.6445312,68.484375 L21.515625,68.484375 L21.515625,74.3554688 L27.3867188,74.3554688 L27.3867188,68.484375 L33.2578125,68.484375 L33.2578125,62.6132813 L27.3867188,62.6132813 Z M68.484375,62.6132813 L68.484375,56.7421875 L62.6132813,56.7421875 L62.6132813,62.6132813 L56.7421875,62.6132813 L56.7421875,68.484375 L62.6132813,68.484375 L62.6132813,74.3554688 L68.484375,74.3554688 L68.484375,68.484375 L74.3554688,68.484375 L74.3554688,62.6132813 L68.484375,62.6132813 Z" id="Shape"></path>
                </g>
            </g>
        </g>
    </g>
</svg>