<?xml version="1.0" encoding="UTF-8"?>
<svg width="90px" height="91px" viewBox="0 0 90 91" version="1.1" xmlns="http://www.w3.org/2000/svg" xmlns:xlink="http://www.w3.org/1999/xlink">
    <title>rw</title>
    <g id="Page-1" stroke="none" stroke-width="1" fill="none" fill-rule="evenodd">
        <g id="Desktop-HD-Copy-17" transform="translate(-782.000000, -410.000000)" fill-rule="nonzero">
            <g id="rw" transform="translate(782.000000, 410.000000)">
                <path d="M0,45.1757812 C0,52.9804688 1.98632813,60.2929688 5.46679688,66.6914062 L45,70.6113281 L84.5332031,66.6914062 C88.0136719,60.3105469 90,52.9804688 90,45.1757812 L45,41.2558594 L0,45.1757812 Z" id="Path" fill="#FFDA44"></path>
                <path d="M84.5332031,23.6601562 C74.6996472,5.57623329 53.8489749,-3.52972478 33.9003576,1.54765255 C13.9517404,6.62502987 -0.00847144327,24.5911506 -3.85341416e-06,45.1757812 L89.9999961,45.1757812 C89.9999961,37.3710937 88.0136719,30.0585937 84.5332031,23.6601562 Z" id="Path" fill="#338AF3"></path>
                <path d="M45,90.1757898 C62.0507813,90.1757898 76.9042969,80.6835938 84.5332031,66.6914062 L5.44921875,66.6914062 C13.3338612,81.1751089 28.5092412,90.1859123 45,90.1757898 Z" id="Path" fill="#496E2D"></path>
                <polygon id="Path" fill="#FFDA44" points="50.8710937 26.5078125 56.3730469 29.0917969 53.4375 34.4179688 59.4140625 33.2753906 60.1699219 39.3046875 64.3183594 34.875 68.484375 39.3046875 69.2402344 33.2753906 75.2167969 34.4179688 72.28125 29.0917969 77.765625 26.5078125 72.28125 23.9238281 75.1992188 18.5976563 69.2226563 19.7402344 68.484375 13.7109375 64.3183594 18.1582031 60.1699219 13.7109375 59.4140625 19.7402344 53.4375 18.5976562 56.3730469 23.9238281"></polygon>
            </g>
        </g>
    </g>
</svg>