<?xml version="1.0" encoding="UTF-8"?>
<svg width="90px" height="91px" viewBox="0 0 90 91" version="1.1" xmlns="http://www.w3.org/2000/svg" xmlns:xlink="http://www.w3.org/1999/xlink">
    <title>us@3x</title>
    <g id="Page-1" stroke="none" stroke-width="1" fill="none" fill-rule="evenodd">
        <g id="Desktop-HD-Copy-17" transform="translate(-381.000000, -317.000000)" fill-rule="nonzero">
            <g id="us" transform="translate(381.000000, 317.000000)">
                <circle id="Oval" fill="#EEEEEE" cx="45" cy="45" r="45"></circle>
                <path d="M43.0488281,45 L90,45 C90,40.9394531 89.4726563,37.0019531 88.453125,33.2578125 L43.0488281,33.2578125 L43.0488281,45 Z M43.0488281,21.515625 L83.390625,21.515625 C80.6410222,17.0345653 77.1314818,13.0670001 73.0195313,9.79101562 L43.0488281,9.79101562 L43.0488281,21.515625 Z M45,90.0000449 C55.5820312,90.0000449 65.3203125,86.34375 73.0195312,80.2089844 L16.9804687,80.2089844 C24.9367133,86.5611757 34.8190396,90.0144102 45,90.0000449 L45,90.0000449 Z M6.609375,68.484375 L83.390625,68.484375 C85.6316848,64.8329192 87.3365965,60.8784712 88.453125,56.7421875 L1.546875,56.7421875 C2.66340352,60.8784712 4.36831522,64.8329192 6.609375,68.484375 Z" id="Shape" fill="#D80027"></path>
                <path d="M20.8476562,7.03125 L24.9433594,7.03125 L21.1289062,9.79101563 L22.5878906,14.2910156 L18.7734375,11.5136719 L14.9589844,14.2910156 L16.2246094,10.4238281 C12.8573987,13.2241787 9.91459574,16.4985651 7.48828125,20.1445312 L8.80664063,20.1445312 L6.38085938,21.9023438 C6.0017108,22.537802 5.6383187,23.18253 5.29101562,23.8359375 L6.45117187,27.3867188 L4.2890625,25.8046875 C3.74695752,26.9549662 3.25431945,28.1279139 2.8125,29.3203125 L4.09570312,33.2402344 L8.7890625,33.2402344 L4.9921875,36.0351563 L6.45117188,40.5175781 L2.63671875,37.7226563 L0.3515625,39.3925781 C0.118820162,41.2526775 0.00140828091,43.125397 0,45 L45,45 L45,0 C36.1054688,0 27.8261719,2.58398438 20.8476562,7.03125 Z M22.5878906,40.5 L18.7734375,37.7226562 L14.9589844,40.5 L16.4179687,36.0175781 L12.6035156,33.2226562 L17.3144531,33.2226562 L18.7734375,28.7402344 L20.2324219,33.2226562 L24.9433594,33.2226562 L21.1289062,36.0351562 L22.5878906,40.5175781 L22.5878906,40.5 Z M21.1289063,22.921875 L22.5878906,27.3867188 L18.7734375,24.6269531 L14.9589844,27.3867188 L16.4179688,22.9042969 L12.6035156,20.1445312 L17.3144531,20.1445312 L18.7734375,15.6445312 L20.2324219,20.1445312 L24.9433594,20.1445312 L21.1289062,22.9042969 L21.1289063,22.921875 Z M38.7246094,40.5 L34.9101563,37.7226562 L31.0957031,40.5 L32.5546875,36.0175781 L28.7402344,33.2402344 L33.4511719,33.2402344 L34.9101563,28.7578125 L36.3691406,33.2402344 L41.0800781,33.2402344 L37.265625,36.0351562 L38.7246094,40.5175781 L38.7246094,40.5 Z M37.265625,22.921875 L38.7246094,27.3867188 L34.9101563,24.6269531 L31.0957031,27.3867188 L32.5546875,22.9042969 L28.7402344,20.1445312 L33.4511719,20.1445312 L34.9101563,15.6445312 L36.3691406,20.1445312 L41.0800781,20.1445312 L37.265625,22.9042969 L37.265625,22.921875 Z M37.265625,9.79101563 L38.7246094,14.2910156 L34.9101562,11.5136719 L31.1132812,14.2910156 L32.5722656,9.79101563 L28.7402344,7.03125 L33.4511719,7.03125 L34.9101562,2.54882812 L36.3867188,7.03125 L41.0976562,7.03125 L37.265625,9.79101563 Z" id="Shape" fill="#0052B4"></path>
            </g>
        </g>
    </g>
</svg>