<svg class="wildflowers-logo" width="296" height="123" viewBox="0 0 296 123" xmlns="http://www.w3.org/2000/svg"><g fill="#000" fill-rule="evenodd"><path d="M20.463 98.228c.856 0 1.478.076 1.945.304a4.628 4.628 0 0 1 1.478 1.293v-11.18c-.933.989-1.79 1.37-3.423 1.37H9.88V75.107H24.12c2.8 0 4.824.152 5.99 2.053v-9.81H0c1.167.912 1.478 1.748 1.478 3.041v48.066c0 1.293-.31 2.13-1.478 3.042h11.36c-1.167-.912-1.479-1.75-1.479-3.042v-20.23h10.582zm42.605 13.537c-1.167 1.826-3.268 1.978-5.29 1.978H41.905v-43.35c0-1.294.311-2.13 1.478-3.043h-11.36c1.168.913 1.48 1.75 1.48 3.042v48.066c0 1.293-.312 2.13-1.48 3.042h31.045v-9.735zm27.566-37.418c11.67 0 21.007 8.898 21.007 20.078s-9.337 20.078-21.007 20.078c-11.671 0-21.008-8.898-21.008-20.078s9.337-20.078 21.008-20.078zM120.2 94.425c0-15.667-13.227-28.292-29.566-28.292-16.417 0-29.567 12.625-29.567 28.292 0 15.667 13.15 28.292 29.567 28.292 16.339 0 29.566-12.625 29.566-28.292zm-4.085-27.075c.856.913 1.478 1.978 2.023 3.194l23.73 52.173h.156l9.96-23.424h.155l9.726 23.424h.155l22.097-51.032c.545-1.293 1.712-3.27 2.879-4.335H174.39c.545.685.856 1.141.856 1.978 0 .304-.155 1.216-.622 2.357l-12.45 32.323h-.155l-13.305-32.17c-.389-.913-1.011-1.902-1.011-2.739 0-.836.778-1.369 1.478-1.749H135.8c.856.609 1.79 1.75 2.178 2.662l9.57 20.382-4.746 13.766h-.155l-14.394-33.387c-.234-.533-.623-1.141-.623-1.978 0-.38.623-.988 1.167-1.445h-12.682zm73.697 51.108c0 1.293-.311 2.13-1.478 3.042h32.6v-9.81c-1.167 1.9-3.19 2.053-5.99 2.053h-16.729V98.228h12.449c.856 0 1.478.076 1.945.304a4.628 4.628 0 0 1 1.478 1.293v-11.18c-.933.989-1.789 1.37-3.423 1.37h-12.449V75.107h16.728c2.801 0 4.824.152 5.991 2.053v-9.81h-32.6c1.167.912 1.478 1.748 1.478 3.041v48.066zm44.877-19.774c9.259.609 20.385 8.898 20.385 18.557 0 1.597-.155 3.499-1.712 4.26h12.76c-.855-.381-1.322-1.066-1.478-1.978-1.634-9.735-6.847-21.98-18.906-23.653v-.152c7.002-.913 10.348-6.312 10.348-12.7 0-9.355-7.236-16.885-17.195-16.885-3.813 0-8.17 1.37-9.57 1.37-1.323 0-2.18-.153-3.035-1.37v52.325c0 1.293-.311 2.13-1.478 3.042h11.36c-1.168-.912-1.479-1.75-1.479-3.042V98.684zm0-24.337h4.202c5.835 0 8.636 3.118 8.636 7.986 0 5.78-4.357 9.354-9.414 9.354h-3.424v-17.34zm31.738 48.37c.467-.684 1.478-1.369 2.1-1.369 2.957 0 5.992 1.369 9.804 1.369 10.426 0 17.507-7.986 17.507-17.34 0-17.568-20.152-17.416-20.152-26.39 0-2.586 2.879-5.096 5.602-5.096 3.735 0 6.458 1.065 8.559 4.107V66.209c-.467.685-1.4.99-2.179.99-1.011 0-2.023-.305-3.112-.533-1.09-.228-2.257-.533-3.58-.533-7.702 0-14.004 5.172-14.004 13.31 0 14.45 20.151 14.222 20.151 26.162 0 5.552-3.734 9.355-9.57 9.355-4.746 0-7.936-1.293-11.126-4.64v12.397zM61.247 1.217c.856.912 1.479 1.977 2.023 3.194l23.731 52.173h.156l9.959-23.425h.156l9.725 23.425h.156L129.25 5.552c.544-1.293 1.711-3.27 2.878-4.335h-12.604c.545.684.856 1.14.856 1.977 0 .304-.156 1.217-.623 2.358l-12.449 32.323h-.155L93.848 5.704c-.389-.913-1.011-1.901-1.011-2.738s.778-1.369 1.478-1.75H80.932c.856.61 1.79 1.75 2.179 2.663l9.57 20.382-4.746 13.766h-.156L73.385 4.639c-.233-.532-.622-1.14-.622-1.977 0-.38.622-.989 1.167-1.445H61.247zm74.21 51.108c0 1.293-.311 2.13-1.478 3.042h11.36c-1.168-.913-1.479-1.75-1.479-3.042V4.259c0-1.293.311-2.13 1.479-3.042h-11.36c1.167.912 1.478 1.75 1.478 3.042v48.066zm47.12-6.693c-1.167 1.825-3.268 1.977-5.29 1.977h-15.873V4.26c0-1.293.311-2.13 1.478-3.042h-11.36c1.168.912 1.479 1.75 1.479 3.042v48.066c0 1.293-.311 2.13-1.478 3.042h31.044v-9.735zm11.241-37.418h6.303c11.126 0 20.696 9.278 20.696 19.545 0 10.8-9.881 19.394-19.53 19.394h-7.469V8.213zm6.614 47.153c15.717 0 28.943-12.093 28.943-27.075C229.375 12.777 215.915 0 199.731 0c-2.49 0-5.135.228-7.313.532-2.101.229-3.813.533-4.59.533-.623 0-1.09-.076-1.401-.228-.39-.229-.623-.457-1.012-.837v52.325c0 1.293-.311 2.13-1.478 3.042h16.495z"></path></g></svg>